solid ascii
 facet normal -0.284862 -0.125182 -0.950359
  outer loop
   vertex 2.49307 48.5686 -94.7512
   vertex 2.21245 46.9334 -94.4517
   vertex 2.11336 50.2016 -94.8525
  endloop
 endfacet
 facet normal -0.284869 -0.125182 -0.950357
  outer loop
   vertex 2.11336 50.2016 -94.8525
   vertex 2.21245 46.9334 -94.4517
   vertex 1.29084 51.6625 -94.7984
  endloop
 endfacet
 facet normal -0.284861 -0.12518 -0.95036
  outer loop
   vertex 2.21245 46.9334 -94.4517
   vertex 1.57446 45.4486 -94.0649
   vertex 1.29084 51.6625 -94.7984
  endloop
 endfacet
 facet normal -0.284866 -0.12518 -0.950359
  outer loop
   vertex 1.29084 51.6625 -94.7984
   vertex 1.57446 45.4486 -94.0649
   vertex 0.368808 52.972 -94.6945
  endloop
 endfacet
 facet normal -0.284871 -0.125181 -0.950357
  outer loop
   vertex 1.57446 45.4486 -94.0649
   vertex 0.955259 44.0488 -93.6949
   vertex 0.368808 52.972 -94.6945
  endloop
 endfacet
 facet normal -0.284867 -0.12518 -0.950358
  outer loop
   vertex -9.99276 38.3353 -89.6607
   vertex -11.4132 38.9014 -89.3095
   vertex -8.49058 38.209 -90.0943
  endloop
 endfacet
 facet normal -0.284869 -0.125187 -0.950357
  outer loop
   vertex -11.4132 38.9014 -89.3095
   vertex -12.6795 39.7671 -89.0439
   vertex -8.49058 38.209 -90.0943
  endloop
 endfacet
 facet normal -0.284868 -0.125184 -0.950358
  outer loop
   vertex -8.49058 38.209 -90.0943
   vertex -12.6795 39.7671 -89.0439
   vertex -7.02413 38.4153 -90.5611
  endloop
 endfacet
 facet normal -0.284866 -0.125174 -0.950359
  outer loop
   vertex -12.6795 39.7671 -89.0439
   vertex -13.8177 40.7599 -88.8335
   vertex -7.02413 38.4153 -90.5611
  endloop
 endfacet
 facet normal -0.284867 -0.12518 -0.950358
  outer loop
   vertex -7.02413 38.4153 -90.5611
   vertex -13.8177 40.7599 -88.8335
   vertex -5.62667 38.7724 -91.027
  endloop
 endfacet
 facet normal -0.284868 -0.125181 -0.950358
  outer loop
   vertex 0.368808 52.972 -94.6945
   vertex 0.955259 44.0488 -93.6949
   vertex -0.545917 54.2153 -94.5841
  endloop
 endfacet
 facet normal -0.284868 -0.125181 -0.950358
  outer loop
   vertex -13.8177 40.7599 -88.8335
   vertex -14.8649 41.8269 -88.6602
   vertex -5.62667 38.7724 -91.027
  endloop
 endfacet
 facet normal -0.284866 -0.125177 -0.950359
  outer loop
   vertex -5.62667 38.7724 -91.027
   vertex -14.8649 41.8269 -88.6602
   vertex -4.27095 39.2089 -91.4909
  endloop
 endfacet
 facet normal -0.284873 -0.125174 -0.950357
  outer loop
   vertex -0.508415 41.4148 -92.9092
   vertex -1.64824 40.4513 -92.4407
   vertex 0.33786 42.6647 -93.3275
  endloop
 endfacet
 facet normal -0.284868 -0.125179 -0.950358
  outer loop
   vertex -1.64824 40.4513 -92.4407
   vertex -2.93847 39.7489 -91.9614
   vertex 0.33786 42.6647 -93.3275
  endloop
 endfacet
 facet normal -0.284863 -0.125185 -0.950359
  outer loop
   vertex 0.33786 42.6647 -93.3275
   vertex -2.93847 39.7489 -91.9614
   vertex 0.955259 44.0488 -93.6949
  endloop
 endfacet
 facet normal -0.284867 -0.125181 -0.950358
  outer loop
   vertex 0.955259 44.0488 -93.6949
   vertex -2.93847 39.7489 -91.9614
   vertex -0.545917 54.2153 -94.5841
  endloop
 endfacet
 facet normal -0.284868 -0.12518 -0.950358
  outer loop
   vertex -2.93847 39.7489 -91.9614
   vertex -4.27095 39.2089 -91.4909
   vertex -0.545917 54.2153 -94.5841
  endloop
 endfacet
 facet normal -0.284867 -0.125181 -0.950358
  outer loop
   vertex -4.27095 39.2089 -91.4909
   vertex -14.8649 41.8269 -88.6602
   vertex -0.545917 54.2153 -94.5841
  endloop
 endfacet
 facet normal -0.284866 -0.125182 -0.950358
  outer loop
   vertex -0.545917 54.2153 -94.5841
   vertex -14.8649 41.8269 -88.6602
   vertex -1.52973 55.3937 -94.4444
  endloop
 endfacet
 facet normal -0.28487 -0.125178 -0.950358
  outer loop
   vertex -1.52973 55.3937 -94.4444
   vertex -14.8649 41.8269 -88.6602
   vertex -2.6497 56.4529 -94.2482
  endloop
 endfacet
 facet normal -0.284866 -0.125182 -0.950358
  outer loop
   vertex -2.6497 56.4529 -94.2482
   vertex -14.8649 41.8269 -88.6602
   vertex -3.94247 57.2826 -93.97
  endloop
 endfacet
 facet normal -0.284867 -0.125181 -0.950358
  outer loop
   vertex -3.94247 57.2826 -93.97
   vertex -14.8649 41.8269 -88.6602
   vertex -5.38113 57.7554 -93.601
  endloop
 endfacet
 facet normal -0.284867 -0.125181 -0.950358
  outer loop
   vertex -14.8649 41.8269 -88.6602
   vertex -15.8159 42.9892 -88.5282
   vertex -5.38113 57.7554 -93.601
  endloop
 endfacet
 facet normal -0.284865 -0.125182 -0.950358
  outer loop
   vertex -15.8159 42.9892 -88.5282
   vertex -16.6457 44.2654 -88.4476
   vertex -5.38113 57.7554 -93.601
  endloop
 endfacet
 facet normal -0.284869 -0.125179 -0.950358
  outer loop
   vertex -16.6457 44.2654 -88.4476
   vertex -17.3057 45.6626 -88.4338
   vertex -5.38113 57.7554 -93.601
  endloop
 endfacet
 facet normal -0.284865 -0.125183 -0.950358
  outer loop
   vertex -17.3057 45.6626 -88.4338
   vertex -17.7389 47.1624 -88.5015
   vertex -5.38113 57.7554 -93.601
  endloop
 endfacet
 facet normal -0.284869 -0.125178 -0.950358
  outer loop
   vertex -17.7389 47.1624 -88.5015
   vertex -17.9042 48.7196 -88.6571
   vertex -5.38113 57.7554 -93.601
  endloop
 endfacet
 facet normal -0.284865 -0.125184 -0.950358
  outer loop
   vertex -17.9042 48.7196 -88.6571
   vertex -17.7776 50.2734 -88.8997
   vertex -5.38113 57.7554 -93.601
  endloop
 endfacet
 facet normal -0.284867 -0.12518 -0.950358
  outer loop
   vertex -17.7776 50.2734 -88.8997
   vertex -17.3779 51.7637 -89.2158
   vertex -5.38113 57.7554 -93.601
  endloop
 endfacet
 facet normal -0.284869 -0.125178 -0.950358
  outer loop
   vertex -17.3779 51.7637 -89.2158
   vertex -16.7737 53.1644 -89.5814
   vertex -5.38113 57.7554 -93.601
  endloop
 endfacet
 facet normal -0.284867 -0.125181 -0.950358
  outer loop
   vertex -16.7737 53.1644 -89.5814
   vertex -16.0088 54.4722 -89.9829
   vertex -5.38113 57.7554 -93.601
  endloop
 endfacet
 facet normal -0.284866 -0.125185 -0.950358
  outer loop
   vertex -16.0088 54.4722 -89.9829
   vertex -15.0322 55.6154 -90.4263
   vertex -5.38113 57.7554 -93.601
  endloop
 endfacet
 facet normal -0.28487 -0.125172 -0.950358
  outer loop
   vertex -13.8117 56.4656 -90.9041
   vertex -12.4413 56.9944 -91.3845
   vertex -15.0322 55.6154 -90.4263
  endloop
 endfacet
 facet normal -0.284868 -0.125176 -0.950358
  outer loop
   vertex -15.0322 55.6154 -90.4263
   vertex -12.4413 56.9944 -91.3845
   vertex -5.38113 57.7554 -93.601
  endloop
 endfacet
 facet normal -0.284868 -0.12518 -0.950358
  outer loop
   vertex -5.38113 57.7554 -93.601
   vertex -12.4413 56.9944 -91.3845
   vertex -6.85958 57.8841 -93.1748
  endloop
 endfacet
 facet normal -0.284871 -0.125164 -0.950359
  outer loop
   vertex -6.85958 57.8841 -93.1748
   vertex -12.4413 56.9944 -91.3845
   vertex -8.2969 57.7939 -92.7321
  endloop
 endfacet
 facet normal -0.284863 -0.125199 -0.950357
  outer loop
   vertex -8.2969 57.7939 -92.7321
   vertex -12.4413 56.9944 -91.3845
   vertex -9.68417 57.5939 -92.2899
  endloop
 endfacet
 facet normal -0.284832 -0.125328 -0.950349
  outer loop
   vertex -9.68417 57.5939 -92.2899
   vertex -12.4413 56.9944 -91.3845
   vertex -11.0527 57.3279 -91.8447
  endloop
 endfacet
endsolid
