solid ascii
 facet normal 0.304134 -0.437013 -0.846476
  outer loop
   vertex 1.97582 42.1976 -89.6334
   vertex 1.12712 41.2988 -89.4743
   vertex 2.32161 43.2967 -90.0766
  endloop
 endfacet
 facet normal 0.304125 -0.437008 -0.846482
  outer loop
   vertex 1.12712 41.2988 -89.4743
   vertex -0.0745397 40.7608 -89.6283
   vertex 2.32161 43.2967 -90.0766
  endloop
 endfacet
 facet normal 0.304128 -0.437011 -0.846479
  outer loop
   vertex 2.32161 43.2967 -90.0766
   vertex -0.0745397 40.7608 -89.6283
   vertex 2.30307 44.3926 -90.649
  endloop
 endfacet
 facet normal 0.304121 -0.437008 -0.846484
  outer loop
   vertex 2.30307 44.3926 -90.649
   vertex -0.0745397 40.7608 -89.6283
   vertex 2.113 45.4004 -91.2376
  endloop
 endfacet
 facet normal 0.304124 -0.437009 -0.846482
  outer loop
   vertex -0.0745397 40.7608 -89.6283
   vertex -1.15896 40.3587 -89.8103
   vertex 2.113 45.4004 -91.2376
  endloop
 endfacet
 facet normal 0.304124 -0.437003 -0.846485
  outer loop
   vertex -3.65975 38.009 -89.4957
   vertex -4.7843 37.756 -89.7691
   vertex -2.67796 38.7354 -89.518
  endloop
 endfacet
 facet normal 0.304126 -0.437008 -0.846482
  outer loop
   vertex -4.7843 37.756 -89.7691
   vertex -5.87942 37.8617 -90.2171
   vertex -2.67796 38.7354 -89.518
  endloop
 endfacet
 facet normal 0.304127 -0.437014 -0.846478
  outer loop
   vertex -2.67796 38.7354 -89.518
   vertex -5.87942 37.8617 -90.2171
   vertex -1.9242 39.6659 -89.7276
  endloop
 endfacet
 facet normal 0.304123 -0.437005 -0.846484
  outer loop
   vertex -5.87942 37.8617 -90.2171
   vertex -6.87557 38.1652 -90.7317
   vertex -1.9242 39.6659 -89.7276
  endloop
 endfacet
 facet normal 0.304131 -0.437007 -0.846481
  outer loop
   vertex -11.747 41.2816 -94.0908
   vertex -12.0258 42.2631 -94.6977
   vertex -11.024 40.5554 -93.4562
  endloop
 endfacet
 facet normal 0.30413 -0.437007 -0.846481
  outer loop
   vertex -12.0258 42.2631 -94.6977
   vertex -11.9189 43.3334 -95.2119
   vertex -11.024 40.5554 -93.4562
  endloop
 endfacet
 facet normal 0.304126 -0.437009 -0.846481
  outer loop
   vertex -11.024 40.5554 -93.4562
   vertex -11.9189 43.3334 -95.2119
   vertex -10.1405 40.0417 -92.8735
  endloop
 endfacet
 facet normal 0.304125 -0.437016 -0.846478
  outer loop
   vertex -6.87557 38.1652 -90.7317
   vertex -7.76345 38.5865 -91.2682
   vertex -1.9242 39.6659 -89.7276
  endloop
 endfacet
 facet normal 0.304117 -0.437014 -0.846482
  outer loop
   vertex -11.9189 43.3334 -95.2119
   vertex -11.6987 44.3651 -95.6653
   vertex -10.1405 40.0417 -92.8735
  endloop
 endfacet
 facet normal 0.304127 -0.43701 -0.84648
  outer loop
   vertex 2.113 45.4004 -91.2376
   vertex -1.15896 40.3587 -89.8103
   vertex 1.93797 46.3455 -91.7884
  endloop
 endfacet
 facet normal 0.304125 -0.437009 -0.846482
  outer loop
   vertex -7.76345 38.5865 -91.2682
   vertex -8.56203 39.072 -91.8058
   vertex -1.9242 39.6659 -89.7276
  endloop
 endfacet
 facet normal 0.30412 -0.437013 -0.846481
  outer loop
   vertex -10.1405 40.0417 -92.8735
   vertex -11.6987 44.3651 -95.6653
   vertex -9.32533 39.5685 -92.3364
  endloop
 endfacet
 facet normal 0.304125 -0.43701 -0.846481
  outer loop
   vertex -1.9242 39.6659 -89.7276
   vertex -8.56203 39.072 -91.8058
   vertex -1.15896 40.3587 -89.8103
  endloop
 endfacet
 facet normal 0.304125 -0.43701 -0.846481
  outer loop
   vertex -1.15896 40.3587 -89.8103
   vertex -8.56203 39.072 -91.8058
   vertex 1.93797 46.3455 -91.7884
  endloop
 endfacet
 facet normal 0.304119 -0.437012 -0.846482
  outer loop
   vertex 1.42759 49.3007 -93.4974
   vertex 1.79515 48.3528 -92.876
   vertex 0.746341 50.0469 -94.1274
  endloop
 endfacet
 facet normal 0.304134 -0.437002 -0.846482
  outer loop
   vertex 0.746341 50.0469 -94.1274
   vertex 1.79515 48.3528 -92.876
   vertex -0.150949 50.5595 -94.7144
  endloop
 endfacet
 facet normal 0.304122 -0.437012 -0.846481
  outer loop
   vertex 1.79515 48.3528 -92.876
   vertex 1.89051 47.326 -92.3116
   vertex -0.150949 50.5595 -94.7144
  endloop
 endfacet
 facet normal 0.304124 -0.437011 -0.846481
  outer loop
   vertex -0.150949 50.5595 -94.7144
   vertex 1.89051 47.326 -92.3116
   vertex -1.16868 50.8443 -95.2271
  endloop
 endfacet
 facet normal 0.304125 -0.43701 -0.846481
  outer loop
   vertex -1.16868 50.8443 -95.2271
   vertex 1.89051 47.326 -92.3116
   vertex -2.23005 50.9301 -95.6528
  endloop
 endfacet
 facet normal 0.304122 -0.437014 -0.84648
  outer loop
   vertex -2.23005 50.9301 -95.6528
   vertex 1.89051 47.326 -92.3116
   vertex -3.28065 50.8646 -95.9964
  endloop
 endfacet
 facet normal 0.304125 -0.43701 -0.846481
  outer loop
   vertex 1.89051 47.326 -92.3116
   vertex 1.93797 46.3455 -91.7884
   vertex -3.28065 50.8646 -95.9964
  endloop
 endfacet
 facet normal 0.304125 -0.43701 -0.846481
  outer loop
   vertex 1.93797 46.3455 -91.7884
   vertex -8.56203 39.072 -91.8058
   vertex -3.28065 50.8646 -95.9964
  endloop
 endfacet
 facet normal 0.30413 -0.437007 -0.846481
  outer loop
   vertex -11.6987 44.3651 -95.6653
   vertex -11.5023 45.3709 -96.1141
   vertex -9.32533 39.5685 -92.3364
  endloop
 endfacet
 facet normal 0.304124 -0.437009 -0.846482
  outer loop
   vertex -8.56203 39.072 -91.8058
   vertex -9.32533 39.5685 -92.3364
   vertex -3.28065 50.8646 -95.9964
  endloop
 endfacet
 facet normal 0.304125 -0.43701 -0.846481
  outer loop
   vertex -9.32533 39.5685 -92.3364
   vertex -11.5023 45.3709 -96.1141
   vertex -3.28065 50.8646 -95.9964
  endloop
 endfacet
 facet normal 0.304123 -0.437007 -0.846483
  outer loop
   vertex -11.5023 45.3709 -96.1141
   vertex -11.2426 46.387 -96.5453
   vertex -3.28065 50.8646 -95.9964
  endloop
 endfacet
 facet normal 0.304125 -0.43701 -0.846481
  outer loop
   vertex -11.2426 46.387 -96.5453
   vertex -10.8259 47.3963 -96.9167
   vertex -3.28065 50.8646 -95.9964
  endloop
 endfacet
 facet normal 0.304125 -0.437011 -0.846481
  outer loop
   vertex -10.8259 47.3963 -96.9167
   vertex -10.2032 48.3419 -97.1811
   vertex -3.28065 50.8646 -95.9964
  endloop
 endfacet
 facet normal 0.304125 -0.437012 -0.84648
  outer loop
   vertex -10.2032 48.3419 -97.1811
   vertex -9.36594 49.1409 -97.2928
   vertex -3.28065 50.8646 -95.9964
  endloop
 endfacet
 facet normal 0.304124 -0.437004 -0.846485
  outer loop
   vertex -9.36594 49.1409 -97.2928
   vertex -8.37614 49.7378 -97.2454
   vertex -3.28065 50.8646 -95.9964
  endloop
 endfacet
 facet normal 0.304121 -0.436995 -0.84649
  outer loop
   vertex -7.32726 50.1385 -97.0754
   vertex -6.28608 50.3856 -96.8289
   vertex -8.37614 49.7378 -97.2454
  endloop
 endfacet
 facet normal 0.304125 -0.437011 -0.846481
  outer loop
   vertex -8.37614 49.7378 -97.2454
   vertex -6.28608 50.3856 -96.8289
   vertex -3.28065 50.8646 -95.9964
  endloop
 endfacet
 facet normal 0.304123 -0.436794 -0.846593
  outer loop
   vertex -4.29363 50.7153 -96.2833
   vertex -3.28065 50.8646 -95.9964
   vertex -5.28119 50.5523 -96.5539
  endloop
 endfacet
 facet normal 0.304127 -0.437168 -0.846399
  outer loop
   vertex -6.28608 50.3856 -96.8289
   vertex -5.28119 50.5523 -96.5539
   vertex -3.28065 50.8646 -95.9964
  endloop
 endfacet
endsolid
