solid ascii
 facet normal -0.648427 -0.310222 0.695202
  outer loop
   vertex 14.2559 10.8869 28.4726
   vertex 13.6622 12.3486 28.5711
   vertex 14.2777 9.37218 27.817
  endloop
 endfacet
 facet normal -0.648427 -0.310222 0.695202
  outer loop
   vertex 13.6622 12.3486 28.5711
   vertex 12.64 13.5145 28.138
   vertex 14.2777 9.37218 27.817
  endloop
 endfacet
 facet normal -0.648426 -0.310222 0.695202
  outer loop
   vertex 12.64 13.5145 28.138
   vertex 11.4724 14.3413 27.4179
   vertex 14.2777 9.37218 27.817
  endloop
 endfacet
 facet normal -0.648426 -0.310222 0.695202
  outer loop
   vertex 14.2777 9.37218 27.817
   vertex 11.4724 14.3413 27.4179
   vertex 14.0703 8.03247 27.0257
  endloop
 endfacet
 facet normal -0.648425 -0.310222 0.695203
  outer loop
   vertex 11.4724 14.3413 27.4179
   vertex 10.3338 14.9059 26.6079
   vertex 14.0703 8.03247 27.0257
  endloop
 endfacet
 facet normal -0.648426 -0.310223 0.695202
  outer loop
   vertex 6.77422 1.25938 17.1982
   vertex 7.76741 1.07973 18.0444
   vertex 5.82357 1.97624 16.6314
  endloop
 endfacet
 facet normal -0.648426 -0.310221 0.695203
  outer loop
   vertex 5.82357 1.97624 16.6314
   vertex 7.76741 1.07973 18.0444
   vertex 5.01675 2.97561 16.3248
  endloop
 endfacet
 facet normal -0.648425 -0.310224 0.695202
  outer loop
   vertex 11.6731 0.955104 21.6317
   vertex 12.2484 1.83378 22.5603
   vertex 10.7803 0.596135 20.6388
  endloop
 endfacet
 facet normal -0.648427 -0.310221 0.695202
  outer loop
   vertex 10.7803 0.596135 20.6388
   vertex 12.2484 1.83378 22.5603
   vertex 9.71475 0.793321 19.7329
  endloop
 endfacet
 facet normal -0.648426 -0.310222 0.695202
  outer loop
   vertex 7.76741 1.07973 18.0444
   vertex 8.71282 1.05297 18.9143
   vertex 5.01675 2.97561 16.3248
  endloop
 endfacet
 facet normal -0.648427 -0.310222 0.695201
  outer loop
   vertex 10.3338 14.9059 26.6079
   vertex 9.28863 15.3215 25.8184
   vertex 14.0703 8.03247 27.0257
  endloop
 endfacet
 facet normal -0.648427 -0.310221 0.695202
  outer loop
   vertex 12.2484 1.83378 22.5603
   vertex 12.7242 2.74707 23.4117
   vertex 9.71475 0.793321 19.7329
  endloop
 endfacet
 facet normal -0.648426 -0.310222 0.695202
  outer loop
   vertex 9.71475 0.793321 19.7329
   vertex 12.7242 2.74707 23.4117
   vertex 8.71282 1.05297 18.9143
  endloop
 endfacet
 facet normal -0.648426 -0.310222 0.695202
  outer loop
   vertex 8.71282 1.05297 18.9143
   vertex 12.7242 2.74707 23.4117
   vertex 5.01675 2.97561 16.3248
  endloop
 endfacet
 facet normal -0.648428 -0.310221 0.695201
  outer loop
   vertex 13.942 4.33571 25.2565
   vertex 14.1543 5.49641 25.9724
   vertex 13.3527 3.48249 24.3261
  endloop
 endfacet
 facet normal -0.648426 -0.310222 0.695202
  outer loop
   vertex 14.1543 5.49641 25.9724
   vertex 14.0655 6.78153 26.4631
   vertex 13.3527 3.48249 24.3261
  endloop
 endfacet
 facet normal -0.648426 -0.310222 0.695202
  outer loop
   vertex 14.0703 8.03247 27.0257
   vertex 9.28863 15.3215 25.8184
   vertex 14.0655 6.78153 26.4631
  endloop
 endfacet
 facet normal -0.648426 -0.310222 0.695202
  outer loop
   vertex 14.0655 6.78153 26.4631
   vertex 9.28863 15.3215 25.8184
   vertex 13.3527 3.48249 24.3261
  endloop
 endfacet
 facet normal -0.648427 -0.310222 0.695201
  outer loop
   vertex 0.975019 6.26728 14.0239
   vertex 2.01291 5.16153 14.4985
   vertex 0.211765 7.63886 13.924
  endloop
 endfacet
 facet normal -0.648426 -0.310222 0.695202
  outer loop
   vertex 0.211765 7.63886 13.924
   vertex 2.01291 5.16153 14.4985
   vertex -0.203785 9.12511 14.1996
  endloop
 endfacet
 facet normal -0.648426 -0.310222 0.695202
  outer loop
   vertex -0.203785 9.12511 14.1996
   vertex 2.01291 5.16153 14.4985
   vertex -0.266618 10.5763 14.7886
  endloop
 endfacet
 facet normal -0.648426 -0.310222 0.695202
  outer loop
   vertex 2.01291 5.16153 14.4985
   vertex 3.1728 4.39942 15.2403
   vertex -0.266618 10.5763 14.7886
  endloop
 endfacet
 facet normal -0.648426 -0.310222 0.695202
  outer loop
   vertex -0.266618 10.5763 14.7886
   vertex 3.1728 4.39942 15.2403
   vertex -0.0458482 11.8897 15.5806
  endloop
 endfacet
 facet normal -0.648426 -0.310222 0.695202
  outer loop
   vertex -0.0458482 11.8897 15.5806
   vertex 3.1728 4.39942 15.2403
   vertex 0.378363 13.0213 16.4812
  endloop
 endfacet
 facet normal -0.648426 -0.310222 0.695203
  outer loop
   vertex 0.378363 13.0213 16.4812
   vertex 3.1728 4.39942 15.2403
   vertex 0.964795 13.9457 17.4407
  endloop
 endfacet
 facet normal -0.648426 -0.310222 0.695202
  outer loop
   vertex 3.1728 4.39942 15.2403
   vertex 4.20374 3.79293 15.9312
   vertex 0.964795 13.9457 17.4407
  endloop
 endfacet
 facet normal -0.648426 -0.310222 0.695202
  outer loop
   vertex 0.964795 13.9457 17.4407
   vertex 4.20374 3.79293 15.9312
   vertex 1.67509 14.6508 18.4178
  endloop
 endfacet
 facet normal -0.648426 -0.310222 0.695202
  outer loop
   vertex 1.67509 14.6508 18.4178
   vertex 4.20374 3.79293 15.9312
   vertex 2.43929 15.1782 19.366
  endloop
 endfacet
 facet normal -0.648426 -0.310222 0.695202
  outer loop
   vertex 13.3527 3.48249 24.3261
   vertex 9.28863 15.3215 25.8184
   vertex 12.7242 2.74707 23.4117
  endloop
 endfacet
 facet normal -0.648426 -0.310222 0.695202
  outer loop
   vertex 12.7242 2.74707 23.4117
   vertex 9.28863 15.3215 25.8184
   vertex 5.01675 2.97561 16.3248
  endloop
 endfacet
 facet normal -0.648427 -0.310222 0.695202
  outer loop
   vertex 2.43929 15.1782 19.366
   vertex 4.20374 3.79293 15.9312
   vertex 3.18783 15.6259 20.2639
  endloop
 endfacet
 facet normal -0.648426 -0.310222 0.695202
  outer loop
   vertex 3.18783 15.6259 20.2639
   vertex 4.20374 3.79293 15.9312
   vertex 3.92107 16.0513 21.1377
  endloop
 endfacet
 facet normal -0.648426 -0.310222 0.695202
  outer loop
   vertex 9.28863 15.3215 25.8184
   vertex 8.3319 15.7103 25.0996
   vertex 5.01675 2.97561 16.3248
  endloop
 endfacet
 facet normal -0.648426 -0.310222 0.695202
  outer loop
   vertex 5.01675 2.97561 16.3248
   vertex 8.3319 15.7103 25.0996
   vertex 4.20374 3.79293 15.9312
  endloop
 endfacet
 facet normal -0.648426 -0.310222 0.695202
  outer loop
   vertex 4.20374 3.79293 15.9312
   vertex 8.3319 15.7103 25.0996
   vertex 3.92107 16.0513 21.1377
  endloop
 endfacet
 facet normal -0.648426 -0.31022 0.695203
  outer loop
   vertex 3.92107 16.0513 21.1377
   vertex 8.3319 15.7103 25.0996
   vertex 4.70786 16.3684 22.013
  endloop
 endfacet
 facet normal -0.648426 -0.310223 0.695202
  outer loop
   vertex 4.70786 16.3684 22.013
   vertex 8.3319 15.7103 25.0996
   vertex 5.57561 16.4663 22.8661
  endloop
 endfacet
 facet normal -0.648426 -0.310224 0.695201
  outer loop
   vertex 5.57561 16.4663 22.8661
   vertex 8.3319 15.7103 25.0996
   vertex 6.4875 16.3481 23.6639
  endloop
 endfacet
 facet normal -0.648426 -0.310227 0.6952
  outer loop
   vertex 7.40842 16.0733 24.4002
   vertex 6.4875 16.3481 23.6639
   vertex 8.3319 15.7103 25.0996
  endloop
 endfacet
endsolid
