solid ascii
 facet normal -0.740001 -0.476854 0.47435
  outer loop
   vertex 17.6902 9.92284 3.86117
   vertex 18.2018 10.5357 5.2753
   vertex 16.7209 10.0426 2.46949
  endloop
 endfacet
 facet normal -0.740001 -0.476855 0.47435
  outer loop
   vertex 18.2018 10.5357 5.2753
   vertex 18.3743 11.5337 6.54775
   vertex 16.7209 10.0426 2.46949
  endloop
 endfacet
 facet normal -0.740001 -0.476855 0.47435
  outer loop
   vertex 16.7209 10.0426 2.46949
   vertex 18.3743 11.5337 6.54775
   vertex 15.6503 10.5342 1.29346
  endloop
 endfacet
 facet normal -0.740001 -0.476856 0.474349
  outer loop
   vertex 13.7368 24.8621 12.7118
   vertex 12.4593 25.3548 11.2143
   vertex 14.9909 23.7097 13.5099
  endloop
 endfacet
 facet normal -0.740001 -0.476855 0.47435
  outer loop
   vertex 14.9909 23.7097 13.5099
   vertex 12.4593 25.3548 11.2143
   vertex 16.0155 22.1542 13.5445
  endloop
 endfacet
 facet normal -0.740001 -0.476855 0.474351
  outer loop
   vertex 16.0155 22.1542 13.5445
   vertex 12.4593 25.3548 11.2143
   vertex 16.7218 20.4967 12.9801
  endloop
 endfacet
 facet normal -0.740001 -0.476855 0.474351
  outer loop
   vertex 12.4593 25.3548 11.2143
   vertex 11.3828 25.4266 9.60703
   vertex 16.7218 20.4967 12.9801
  endloop
 endfacet
 facet normal -0.740001 -0.476855 0.474351
  outer loop
   vertex 16.7218 20.4967 12.9801
   vertex 11.3828 25.4266 9.60703
   vertex 17.1656 18.9479 12.1155
  endloop
 endfacet
 facet normal -0.740001 -0.476855 0.47435
  outer loop
   vertex 6.37323 15.5126 -8.17435
   vertex 7.60729 14.0654 -7.70402
   vertex 5.48318 17.206 -7.86058
  endloop
 endfacet
 facet normal -0.740001 -0.476855 0.47435
  outer loop
   vertex 5.48318 17.206 -7.86058
   vertex 7.60729 14.0654 -7.70402
   vertex 5.08664 18.8692 -6.80717
  endloop
 endfacet
 facet normal -0.740001 -0.476855 0.47435
  outer loop
   vertex 7.60729 14.0654 -7.70402
   vertex 8.97443 13.074 -6.56789
   vertex 5.08664 18.8692 -6.80717
  endloop
 endfacet
 facet normal -0.740001 -0.476855 0.47435
  outer loop
   vertex 5.08664 18.8692 -6.80717
   vertex 8.97443 13.074 -6.56789
   vertex 5.04131 20.2918 -5.44781
  endloop
 endfacet
 facet normal -0.740001 -0.476855 0.47435
  outer loop
   vertex 8.97443 13.074 -6.56789
   vertex 10.2392 12.5019 -5.16988
   vertex 5.04131 20.2918 -5.44781
  endloop
 endfacet
 facet normal -0.740001 -0.476855 0.47435
  outer loop
   vertex 5.04131 20.2918 -5.44781
   vertex 10.2392 12.5019 -5.16988
   vertex 5.00626 21.5289 -4.25883
  endloop
 endfacet
 facet normal -0.740001 -0.476855 0.47435
  outer loop
   vertex 17.1656 18.9479 12.1155
   vertex 11.3828 25.4266 9.60703
   vertex 17.5464 17.5507 11.305
  endloop
 endfacet
 facet normal -0.740001 -0.476855 0.47435
  outer loop
   vertex 10.2392 12.5019 -5.16988
   vertex 11.3069 12.0161 -3.99274
   vertex 5.00626 21.5289 -4.25883
  endloop
 endfacet
 facet normal -0.74 -0.476857 0.47435
  outer loop
   vertex 18.3743 11.5337 6.54775
   vertex 18.4944 12.55 7.7568
   vertex 15.6503 10.5342 1.29346
  endloop
 endfacet
 facet normal -0.740001 -0.476855 0.47435
  outer loop
   vertex 11.3828 25.4266 9.60703
   vertex 10.474 25.6398 8.4036
   vertex 17.5464 17.5507 11.305
  endloop
 endfacet
 facet normal -0.740001 -0.476853 0.474351
  outer loop
   vertex 13.237 10.8215 -2.18251
   vertex 14.0711 10.7056 -0.997873
   vertex 12.2828 11.3699 -3.11988
  endloop
 endfacet
 facet normal -0.740001 -0.476854 0.474351
  outer loop
   vertex 8.6734 26.5144 6.4739
   vertex 7.92812 26.4907 5.28734
   vertex 9.56623 26.1349 7.48517
  endloop
 endfacet
 facet normal -0.740001 -0.476855 0.47435
  outer loop
   vertex 5.00626 21.5289 -4.25883
   vertex 11.3069 12.0161 -3.99274
   vertex 4.8413 22.7474 -3.29123
  endloop
 endfacet
 facet normal -0.740001 -0.476855 0.47435
  outer loop
   vertex 17.5464 17.5507 11.305
   vertex 10.474 25.6398 8.4036
   vertex 18.0214 16.1889 10.677
  endloop
 endfacet
 facet normal -0.740002 -0.476854 0.47435
  outer loop
   vertex 18.4944 12.55 7.7568
   vertex 18.5806 13.6006 8.94742
   vertex 15.6503 10.5342 1.29346
  endloop
 endfacet
 facet normal -0.740001 -0.476855 0.47435
  outer loop
   vertex 18.5806 13.6006 8.94742
   vertex 18.4391 14.8275 9.96002
   vertex 15.6503 10.5342 1.29346
  endloop
 endfacet
 facet normal -0.740001 -0.476855 0.47435
  outer loop
   vertex 18.4391 14.8275 9.96002
   vertex 18.0214 16.1889 10.677
   vertex 15.6503 10.5342 1.29346
  endloop
 endfacet
 facet normal -0.740001 -0.476855 0.47435
  outer loop
   vertex 18.0214 16.1889 10.677
   vertex 10.474 25.6398 8.4036
   vertex 15.6503 10.5342 1.29346
  endloop
 endfacet
 facet normal -0.740001 -0.476855 0.47435
  outer loop
   vertex 15.6503 10.5342 1.29346
   vertex 10.474 25.6398 8.4036
   vertex 14.7975 10.7731 0.203206
  endloop
 endfacet
 facet normal -0.740001 -0.476855 0.47435
  outer loop
   vertex 10.474 25.6398 8.4036
   vertex 9.56623 26.1349 7.48517
   vertex 14.7975 10.7731 0.203206
  endloop
 endfacet
 facet normal -0.740001 -0.476855 0.47435
  outer loop
   vertex 9.56623 26.1349 7.48517
   vertex 7.92812 26.4907 5.28734
   vertex 14.7975 10.7731 0.203206
  endloop
 endfacet
 facet normal -0.740001 -0.476855 0.47435
  outer loop
   vertex 14.7975 10.7731 0.203206
   vertex 7.92812 26.4907 5.28734
   vertex 14.0711 10.7056 -0.997873
  endloop
 endfacet
 facet normal -0.740001 -0.476855 0.47435
  outer loop
   vertex 14.0711 10.7056 -0.997873
   vertex 7.92812 26.4907 5.28734
   vertex 12.2828 11.3699 -3.11988
  endloop
 endfacet
 facet normal -0.740001 -0.476855 0.47435
  outer loop
   vertex 12.2828 11.3699 -3.11988
   vertex 7.92812 26.4907 5.28734
   vertex 11.3069 12.0161 -3.99274
  endloop
 endfacet
 facet normal -0.740001 -0.476855 0.47435
  outer loop
   vertex 11.3069 12.0161 -3.99274
   vertex 7.92812 26.4907 5.28734
   vertex 4.8413 22.7474 -3.29123
  endloop
 endfacet
 facet normal -0.740001 -0.476855 0.47435
  outer loop
   vertex 4.8413 22.7474 -3.29123
   vertex 7.92812 26.4907 5.28734
   vertex 4.72794 23.9287 -2.28051
  endloop
 endfacet
 facet normal -0.74 -0.476856 0.47435
  outer loop
   vertex 4.72794 23.9287 -2.28051
   vertex 7.92812 26.4907 5.28734
   vertex 4.84979 24.9257 -1.08815
  endloop
 endfacet
 facet normal -0.740002 -0.476853 0.47435
  outer loop
   vertex 5.23698 25.641 0.2349
   vertex 4.84979 24.9257 -1.08815
   vertex 5.86203 26.0202 1.59121
  endloop
 endfacet
 facet normal -0.740002 -0.476854 0.47435
  outer loop
   vertex 5.86203 26.0202 1.59121
   vertex 4.84979 24.9257 -1.08815
   vertex 6.59631 26.159 2.87625
  endloop
 endfacet
 facet normal -0.740001 -0.476854 0.47435
  outer loop
   vertex 6.59631 26.159 2.87625
   vertex 4.84979 24.9257 -1.08815
   vertex 7.28639 26.2861 4.08054
  endloop
 endfacet
 facet normal -0.74 -0.476856 0.47435
  outer loop
   vertex 7.92812 26.4907 5.28734
   vertex 7.28639 26.2861 4.08054
   vertex 4.84979 24.9257 -1.08815
  endloop
 endfacet
endsolid
