solid ascii
 facet normal -0.277454 -0.148691 -0.949163
  outer loop
   vertex -8.64997 43.3396 -125.355
   vertex -9.95472 42.6993 -124.873
   vertex -7.65624 44.4213 -125.815
  endloop
 endfacet
 facet normal -0.277462 -0.148681 -0.949162
  outer loop
   vertex -9.95472 42.6993 -124.873
   vertex -11.4138 42.5459 -124.422
   vertex -7.65624 44.4213 -125.815
  endloop
 endfacet
 facet normal -0.277458 -0.148689 -0.949162
  outer loop
   vertex -11.4138 42.5459 -124.422
   vertex -12.8588 42.7346 -124.03
   vertex -7.65624 44.4213 -125.815
  endloop
 endfacet
 facet normal -0.277459 -0.148686 -0.949162
  outer loop
   vertex -7.65624 44.4213 -125.815
   vertex -12.8588 42.7346 -124.03
   vertex -6.86771 45.6141 -126.232
  endloop
 endfacet
 facet normal -0.277459 -0.148686 -0.949162
  outer loop
   vertex -12.8588 42.7346 -124.03
   vertex -14.216 43.1147 -123.692
   vertex -6.86771 45.6141 -126.232
  endloop
 endfacet
 facet normal -0.27744 -0.14867 -0.94917
  outer loop
   vertex -5.53148 56.2839 -128.294
   vertex -4.96508 54.9197 -128.246
   vertex -6.49145 57.4059 -128.189
  endloop
 endfacet
 facet normal -0.277479 -0.148694 -0.949155
  outer loop
   vertex -4.96508 54.9197 -128.246
   vertex -4.83867 53.4574 -128.054
   vertex -6.49145 57.4059 -128.189
  endloop
 endfacet
 facet normal -0.277457 -0.148686 -0.949163
  outer loop
   vertex -6.49145 57.4059 -128.189
   vertex -4.83867 53.4574 -128.054
   vertex -7.55168 58.3715 -128.03
  endloop
 endfacet
 facet normal -0.277447 -0.14868 -0.949167
  outer loop
   vertex -4.83867 53.4574 -128.054
   vertex -4.83138 52.0449 -127.835
   vertex -7.55168 58.3715 -128.03
  endloop
 endfacet
 facet normal -0.277464 -0.148684 -0.949161
  outer loop
   vertex -4.73927 49.1851 -127.414
   vertex -5.21843 47.8446 -127.063
   vertex -4.71259 50.6343 -127.648
  endloop
 endfacet
 facet normal -0.277453 -0.148687 -0.949164
  outer loop
   vertex -5.21843 47.8446 -127.063
   vertex -6.03552 46.7057 -126.646
   vertex -4.71259 50.6343 -127.648
  endloop
 endfacet
 facet normal -0.277462 -0.148677 -0.949163
  outer loop
   vertex -14.216 43.1147 -123.692
   vertex -15.4864 43.5728 -123.393
   vertex -6.86771 45.6141 -126.232
  endloop
 endfacet
 facet normal -0.277446 -0.148689 -0.949165
  outer loop
   vertex -4.71259 50.6343 -127.648
   vertex -6.03552 46.7057 -126.646
   vertex -4.83138 52.0449 -127.835
  endloop
 endfacet
 facet normal -0.27746 -0.148685 -0.949162
  outer loop
   vertex -4.83138 52.0449 -127.835
   vertex -6.03552 46.7057 -126.646
   vertex -7.55168 58.3715 -128.03
  endloop
 endfacet
 facet normal -0.277459 -0.148688 -0.949162
  outer loop
   vertex -6.86771 45.6141 -126.232
   vertex -15.4864 43.5728 -123.393
   vertex -6.03552 46.7057 -126.646
  endloop
 endfacet
 facet normal -0.27746 -0.148685 -0.949162
  outer loop
   vertex -6.03552 46.7057 -126.646
   vertex -15.4864 43.5728 -123.393
   vertex -7.55168 58.3715 -128.03
  endloop
 endfacet
 facet normal -0.277461 -0.148685 -0.949162
  outer loop
   vertex -7.55168 58.3715 -128.03
   vertex -15.4864 43.5728 -123.393
   vertex -8.58767 59.3296 -127.878
  endloop
 endfacet
 facet normal -0.277457 -0.148686 -0.949163
  outer loop
   vertex -8.58767 59.3296 -127.878
   vertex -15.4864 43.5728 -123.393
   vertex -9.71723 60.1959 -127.683
  endloop
 endfacet
 facet normal -0.277459 -0.148686 -0.949162
  outer loop
   vertex -9.71723 60.1959 -127.683
   vertex -15.4864 43.5728 -123.393
   vertex -11.001 60.7904 -127.401
  endloop
 endfacet
 facet normal -0.277461 -0.148685 -0.949162
  outer loop
   vertex -11.001 60.7904 -127.401
   vertex -15.4864 43.5728 -123.393
   vertex -12.3646 61.0936 -127.05
  endloop
 endfacet
 facet normal -0.277456 -0.148686 -0.949163
  outer loop
   vertex -12.3646 61.0936 -127.05
   vertex -15.4864 43.5728 -123.393
   vertex -13.7385 61.2216 -126.668
  endloop
 endfacet
 facet normal -0.277462 -0.148685 -0.949161
  outer loop
   vertex -13.7385 61.2216 -126.668
   vertex -15.4864 43.5728 -123.393
   vertex -15.1169 61.2258 -126.266
  endloop
 endfacet
 facet normal -0.277456 -0.148686 -0.949163
  outer loop
   vertex -15.1169 61.2258 -126.266
   vertex -15.4864 43.5728 -123.393
   vertex -16.4822 61.0173 -125.834
  endloop
 endfacet
 facet normal -0.277462 -0.148686 -0.949161
  outer loop
   vertex -16.4822 61.0173 -125.834
   vertex -15.4864 43.5728 -123.393
   vertex -17.7714 60.5293 -125.381
  endloop
 endfacet
 facet normal -0.277456 -0.148685 -0.949163
  outer loop
   vertex -17.7714 60.5293 -125.381
   vertex -15.4864 43.5728 -123.393
   vertex -18.9695 59.847 -124.924
  endloop
 endfacet
 facet normal -0.27746 -0.148686 -0.949162
  outer loop
   vertex -18.9695 59.847 -124.924
   vertex -15.4864 43.5728 -123.393
   vertex -20.135 59.076 -124.462
  endloop
 endfacet
 facet normal -0.277457 -0.148685 -0.949163
  outer loop
   vertex -20.135 59.076 -124.462
   vertex -15.4864 43.5728 -123.393
   vertex -21.2684 58.1825 -123.991
  endloop
 endfacet
 facet normal -0.277463 -0.148687 -0.949161
  outer loop
   vertex -21.2684 58.1825 -123.991
   vertex -15.4864 43.5728 -123.393
   vertex -22.2245 57.0565 -123.535
  endloop
 endfacet
 facet normal -0.27746 -0.148686 -0.949162
  outer loop
   vertex -22.2245 57.0565 -123.535
   vertex -15.4864 43.5728 -123.393
   vertex -22.8453 55.6921 -123.14
  endloop
 endfacet
 facet normal -0.277455 -0.148683 -0.949164
  outer loop
   vertex -22.8453 55.6921 -123.14
   vertex -15.4864 43.5728 -123.393
   vertex -23.1192 54.2015 -122.826
  endloop
 endfacet
 facet normal -0.27746 -0.148686 -0.949162
  outer loop
   vertex -23.1192 54.2015 -122.826
   vertex -15.4864 43.5728 -123.393
   vertex -23.0973 52.6871 -122.596
  endloop
 endfacet
 facet normal -0.277462 -0.148689 -0.949161
  outer loop
   vertex -23.0973 52.6871 -122.596
   vertex -15.4864 43.5728 -123.393
   vertex -22.8427 51.2124 -122.439
  endloop
 endfacet
 facet normal -0.277458 -0.148684 -0.949163
  outer loop
   vertex -22.8427 51.2124 -122.439
   vertex -15.4864 43.5728 -123.393
   vertex -22.4194 49.8041 -122.342
  endloop
 endfacet
 facet normal -0.277457 -0.148683 -0.949163
  outer loop
   vertex -22.4194 49.8041 -122.342
   vertex -15.4864 43.5728 -123.393
   vertex -21.8562 48.4681 -122.298
  endloop
 endfacet
 facet normal -0.277458 -0.148685 -0.949163
  outer loop
   vertex -21.8562 48.4681 -122.298
   vertex -15.4864 43.5728 -123.393
   vertex -21.1185 47.2348 -122.32
  endloop
 endfacet
 facet normal -0.277456 -0.148681 -0.949164
  outer loop
   vertex -21.1185 47.2348 -122.32
   vertex -15.4864 43.5728 -123.393
   vertex -20.1876 46.1609 -122.424
  endloop
 endfacet
 facet normal -0.277459 -0.148687 -0.949162
  outer loop
   vertex -20.1876 46.1609 -122.424
   vertex -15.4864 43.5728 -123.393
   vertex -19.1065 45.2782 -122.602
  endloop
 endfacet
 facet normal -0.277462 -0.148695 -0.94916
  outer loop
   vertex -19.1065 45.2782 -122.602
   vertex -15.4864 43.5728 -123.393
   vertex -17.9327 44.5851 -122.836
  endloop
 endfacet
 facet normal -0.277454 -0.148673 -0.949166
  outer loop
   vertex -15.4864 43.5728 -123.393
   vertex -16.7174 44.0431 -123.107
   vertex -17.9327 44.5851 -122.836
  endloop
 endfacet
endsolid
