solid ascii
 facet normal -0.474077 -0.356296 0.805173
  outer loop
   vertex -11.6775 18.5758 9.19771
   vertex -10.533 16.967 9.15968
   vertex -12.0571 20.3725 9.76929
  endloop
 endfacet
 facet normal -0.474077 -0.356296 0.805173
  outer loop
   vertex -10.533 16.967 9.15968
   vertex -8.88386 15.7959 9.61247
   vertex -12.0571 20.3725 9.76929
  endloop
 endfacet
 facet normal -0.474077 -0.356296 0.805173
  outer loop
   vertex -12.0571 20.3725 9.76929
   vertex -8.88386 15.7959 9.61247
   vertex -11.8522 22.0828 10.6467
  endloop
 endfacet
 facet normal -0.474077 -0.356296 0.805173
  outer loop
   vertex -11.8522 22.0828 10.6467
   vertex -8.88386 15.7959 9.61247
   vertex -11.2911 23.5887 11.6435
  endloop
 endfacet
 facet normal -0.474077 -0.356296 0.805173
  outer loop
   vertex -8.88386 15.7959 9.61247
   vertex -7.25967 14.9915 10.2128
   vertex -11.2911 23.5887 11.6435
  endloop
 endfacet
 facet normal -0.474077 -0.356296 0.805173
  outer loop
   vertex -11.2911 23.5887 11.6435
   vertex -7.25967 14.9915 10.2128
   vertex -10.4633 24.8388 12.6841
  endloop
 endfacet
 facet normal -0.474077 -0.356296 0.805173
  outer loop
   vertex -10.4633 24.8388 12.6841
   vertex -7.25967 14.9915 10.2128
   vertex -9.43411 25.8037 13.717
  endloop
 endfacet
 facet normal -0.474077 -0.356296 0.805173
  outer loop
   vertex -9.43411 25.8037 13.717
   vertex -7.25967 14.9915 10.2128
   vertex -8.27735 26.4804 14.6976
  endloop
 endfacet
 facet normal -0.474077 -0.356297 0.805173
  outer loop
   vertex 0.737935 27.7439 20.5648
   vertex -0.530336 27.6386 19.7714
   vertex 2.00361 27.2996 21.1134
  endloop
 endfacet
 facet normal -0.474077 -0.356296 0.805173
  outer loop
   vertex -7.25967 14.9915 10.2128
   vertex -5.91444 14.2979 10.698
   vertex -8.27735 26.4804 14.6976
  endloop
 endfacet
 facet normal -0.474077 -0.356296 0.805173
  outer loop
   vertex 7.47664 23.8216 22.7968
   vertex 6.10119 25.0336 22.5233
   vertex 8.38421 22.2607 22.6405
  endloop
 endfacet
 facet normal -0.474077 -0.356296 0.805173
  outer loop
   vertex 8.38421 22.2607 22.6405
   vertex 6.10119 25.0336 22.5233
   vertex 8.7762 20.5704 22.1233
  endloop
 endfacet
 facet normal -0.474077 -0.356296 0.805173
  outer loop
   vertex 8.7762 20.5704 22.1233
   vertex 6.10119 25.0336 22.5233
   vertex 8.71536 18.934 21.3633
  endloop
 endfacet
 facet normal -0.474077 -0.356296 0.805173
  outer loop
   vertex 6.10119 25.0336 22.5233
   vertex 4.58365 25.8752 22.0022
   vertex 8.71536 18.934 21.3633
  endloop
 endfacet
 facet normal -0.474077 -0.356296 0.805174
  outer loop
   vertex 8.71536 18.934 21.3633
   vertex 4.58365 25.8752 22.0022
   vertex 8.32425 17.4577 20.4798
  endloop
 endfacet
 facet normal -0.474078 -0.356297 0.805173
  outer loop
   vertex 8.32425 17.4577 20.4798
   vertex 4.58365 25.8752 22.0022
   vertex 7.75393 16.1606 19.57
  endloop
 endfacet
 facet normal -0.474077 -0.356296 0.805173
  outer loop
   vertex -8.27735 26.4804 14.6976
   vertex -5.91444 14.2979 10.698
   vertex -7.06545 26.8921 15.5933
  endloop
 endfacet
 facet normal -0.474077 -0.356296 0.805173
  outer loop
   vertex 4.58365 25.8752 22.0022
   vertex 3.22668 26.5866 21.518
   vertex 7.75393 16.1606 19.57
  endloop
 endfacet
 facet normal -0.474077 -0.356298 0.805173
  outer loop
   vertex -0.530336 27.6386 19.7714
   vertex -1.63614 27.2407 18.9443
   vertex 2.00361 27.2996 21.1134
  endloop
 endfacet
 facet normal -0.474077 -0.356296 0.805173
  outer loop
   vertex 2.00361 27.2996 21.1134
   vertex -1.63614 27.2407 18.9443
   vertex 3.22668 26.5866 21.518
  endloop
 endfacet
 facet normal -0.474077 -0.356297 0.805173
  outer loop
   vertex 3.22668 26.5866 21.518
   vertex -1.63614 27.2407 18.9443
   vertex 7.75393 16.1606 19.57
  endloop
 endfacet
 facet normal -0.474077 -0.356296 0.805174
  outer loop
   vertex 7.75393 16.1606 19.57
   vertex -1.63614 27.2407 18.9443
   vertex 7.1047 15.0062 18.6769
  endloop
 endfacet
 facet normal -0.474077 -0.356296 0.805173
  outer loop
   vertex -7.06545 26.8921 15.5933
   vertex -5.91444 14.2979 10.698
   vertex -5.85811 27.0802 16.3874
  endloop
 endfacet
 facet normal -0.474077 -0.356296 0.805173
  outer loop
   vertex -5.91444 14.2979 10.698
   vertex -4.70046 13.6977 11.1471
   vertex -5.85811 27.0802 16.3874
  endloop
 endfacet
 facet normal -0.474077 -0.356296 0.805174
  outer loop
   vertex 7.1047 15.0062 18.6769
   vertex -1.63614 27.2407 18.9443
   vertex 6.39232 13.9645 17.7965
  endloop
 endfacet
 facet normal -0.474077 -0.356296 0.805173
  outer loop
   vertex -5.85811 27.0802 16.3874
   vertex -4.70046 13.6977 11.1471
   vertex -4.69648 27.0958 17.0783
  endloop
 endfacet
 facet normal -0.474077 -0.356296 0.805173
  outer loop
   vertex -4.70046 13.6977 11.1471
   vertex -3.50521 13.3102 11.6794
   vertex -4.69648 27.0958 17.0783
  endloop
 endfacet
 facet normal -0.474078 -0.356297 0.805173
  outer loop
   vertex 6.39232 13.9645 17.7965
   vertex -1.63614 27.2407 18.9443
   vertex 5.60685 13.0215 16.9167
  endloop
 endfacet
 facet normal -0.474077 -0.356296 0.805173
  outer loop
   vertex 5.60685 13.0215 16.9167
   vertex -1.63614 27.2407 18.9443
   vertex 4.69748 12.2228 16.0279
  endloop
 endfacet
 facet normal -0.474077 -0.356296 0.805173
  outer loop
   vertex 4.69748 12.2228 16.0279
   vertex -1.63614 27.2407 18.9443
   vertex 3.6291 11.6562 15.1481
  endloop
 endfacet
 facet normal -0.474077 -0.356296 0.805173
  outer loop
   vertex 3.6291 11.6562 15.1481
   vertex -1.63614 27.2407 18.9443
   vertex 2.41528 11.4131 14.3258
  endloop
 endfacet
 facet normal -0.474077 -0.356296 0.805173
  outer loop
   vertex 2.41528 11.4131 14.3258
   vertex -1.63614 27.2407 18.9443
   vertex 1.11757 11.5683 13.6304
  endloop
 endfacet
 facet normal -0.474077 -0.356296 0.805173
  outer loop
   vertex -3.50521 13.3102 11.6794
   vertex -2.37052 13.0579 12.2359
   vertex -4.69648 27.0958 17.0783
  endloop
 endfacet
 facet normal -0.474077 -0.356296 0.805173
  outer loop
   vertex 1.11757 11.5683 13.6304
   vertex -1.63614 27.2407 18.9443
   vertex -0.151197 12.0892 13.1139
  endloop
 endfacet
 facet normal -0.474077 -0.356296 0.805173
  outer loop
   vertex -4.69648 27.0958 17.0783
   vertex -2.37052 13.0579 12.2359
   vertex -3.60753 27.0095 17.6812
  endloop
 endfacet
 facet normal -0.474077 -0.356296 0.805173
  outer loop
   vertex -0.151197 12.0892 13.1139
   vertex -1.63614 27.2407 18.9443
   vertex -1.29345 12.68 12.7028
  endloop
 endfacet
 facet normal -0.474077 -0.356296 0.805173
  outer loop
   vertex -2.37052 13.0579 12.2359
   vertex -1.29345 12.68 12.7028
   vertex -3.60753 27.0095 17.6812
  endloop
 endfacet
 facet normal -0.474077 -0.356296 0.805173
  outer loop
   vertex -3.60753 27.0095 17.6812
   vertex -1.29345 12.68 12.7028
   vertex -2.6101 26.9937 18.2615
  endloop
 endfacet
 facet normal -0.474076 -0.356296 0.805174
  outer loop
   vertex -1.63614 27.2407 18.9443
   vertex -2.6101 26.9937 18.2615
   vertex -1.29345 12.68 12.7028
  endloop
 endfacet
endsolid
