solid ascii
 facet normal -0.270186 -0.294938 -0.916521
  outer loop
   vertex -3.86908 54.439 -129.018
   vertex -3.7142 53.5916 -128.791
   vertex -4.40632 55.1224 -129.079
  endloop
 endfacet
 facet normal -0.270174 -0.294934 -0.916526
  outer loop
   vertex -3.7142 53.5916 -128.791
   vertex -3.86908 52.7521 -128.475
   vertex -4.40632 55.1224 -129.079
  endloop
 endfacet
 facet normal -0.270192 -0.294936 -0.91652
  outer loop
   vertex -4.40632 55.1224 -129.079
   vertex -3.86908 52.7521 -128.475
   vertex -5.1314 55.6113 -129.023
  endloop
 endfacet
 facet normal -0.270168 -0.294938 -0.916527
  outer loop
   vertex -3.00626 49.3811 -127.644
   vertex -3.40345 48.5983 -127.275
   vertex -3.06123 50.3245 -127.932
  endloop
 endfacet
 facet normal -0.270189 -0.294932 -0.916522
  outer loop
   vertex -3.06123 50.3245 -127.932
   vertex -3.40345 48.5983 -127.275
   vertex -3.51232 51.2495 -128.097
  endloop
 endfacet
 facet normal -0.270187 -0.294932 -0.916523
  outer loop
   vertex -3.40345 48.5983 -127.275
   vertex -4.05637 48.0141 -126.895
   vertex -3.51232 51.2495 -128.097
  endloop
 endfacet
 facet normal -0.270181 -0.294933 -0.916524
  outer loop
   vertex -4.05637 48.0141 -126.895
   vertex -4.81254 47.5958 -126.537
   vertex -3.51232 51.2495 -128.097
  endloop
 endfacet
 facet normal -0.270175 -0.29493 -0.916527
  outer loop
   vertex -5.1314 55.6113 -129.023
   vertex -3.86908 52.7521 -128.475
   vertex -5.88825 55.967 -128.914
  endloop
 endfacet
 facet normal -0.270182 -0.294933 -0.916524
  outer loop
   vertex -4.81254 47.5958 -126.537
   vertex -5.59969 47.3061 -126.212
   vertex -3.51232 51.2495 -128.097
  endloop
 endfacet
 facet normal -0.270168 -0.294941 -0.916526
  outer loop
   vertex -3.51232 51.2495 -128.097
   vertex -5.59969 47.3061 -126.212
   vertex -3.90059 52.0191 -128.23
  endloop
 endfacet
 facet normal -0.270174 -0.294928 -0.916528
  outer loop
   vertex -8.82283 57.4735 -128.534
   vertex -8.00012 57.223 -128.696
   vertex -9.64548 57.3888 -128.264
  endloop
 endfacet
 facet normal -0.270174 -0.294926 -0.916529
  outer loop
   vertex -8.00012 57.223 -128.696
   vertex -7.26868 56.7505 -128.759
   vertex -9.64548 57.3888 -128.264
  endloop
 endfacet
 facet normal -0.270179 -0.294951 -0.916519
  outer loop
   vertex -9.64548 57.3888 -128.264
   vertex -7.26868 56.7505 -128.759
   vertex -10.4081 57.13 -127.956
  endloop
 endfacet
 facet normal -0.270174 -0.294939 -0.916525
  outer loop
   vertex -5.59969 47.3061 -126.212
   vertex -6.38206 47.1006 -125.915
   vertex -3.90059 52.0191 -128.23
  endloop
 endfacet
 facet normal -0.270178 -0.294936 -0.916524
  outer loop
   vertex -6.38206 47.1006 -125.915
   vertex -7.1693 46.9947 -125.649
   vertex -3.90059 52.0191 -128.23
  endloop
 endfacet
 facet normal -0.270184 -0.294932 -0.916524
  outer loop
   vertex -7.1693 46.9947 -125.649
   vertex -7.96115 47.0382 -125.43
   vertex -3.90059 52.0191 -128.23
  endloop
 endfacet
 facet normal -0.270173 -0.294931 -0.916527
  outer loop
   vertex -13.1422 49.2013 -124.599
   vertex -13.5303 49.9899 -124.738
   vertex -12.5168 48.5673 -124.579
  endloop
 endfacet
 facet normal -0.270187 -0.29494 -0.91652
  outer loop
   vertex -12.5168 48.5673 -124.579
   vertex -13.5303 49.9899 -124.738
   vertex -11.7472 48.1295 -124.665
  endloop
 endfacet
 facet normal -0.270183 -0.294936 -0.916523
  outer loop
   vertex -13.5303 49.9899 -124.738
   vertex -13.7396 50.8214 -124.944
   vertex -11.7472 48.1295 -124.665
  endloop
 endfacet
 facet normal -0.270176 -0.294931 -0.916526
  outer loop
   vertex -11.7472 48.1295 -124.665
   vertex -13.7396 50.8214 -124.944
   vertex -10.9512 47.8419 -124.807
  endloop
 endfacet
 facet normal -0.270178 -0.294933 -0.916525
  outer loop
   vertex -13.7396 50.8214 -124.944
   vertex -13.8777 51.6414 -125.167
   vertex -10.9512 47.8419 -124.807
  endloop
 endfacet
 facet normal -0.270178 -0.294937 -0.916524
  outer loop
   vertex -7.96115 47.0382 -125.43
   vertex -8.72673 47.2178 -125.262
   vertex -3.90059 52.0191 -128.23
  endloop
 endfacet
 facet normal -0.270175 -0.29493 -0.916527
  outer loop
   vertex -5.88825 55.967 -128.914
   vertex -3.86908 52.7521 -128.475
   vertex -6.59859 56.3039 -128.813
  endloop
 endfacet
 facet normal -0.270177 -0.294932 -0.916526
  outer loop
   vertex -3.86908 52.7521 -128.475
   vertex -3.90059 52.0191 -128.23
   vertex -6.59859 56.3039 -128.813
  endloop
 endfacet
 facet normal -0.270181 -0.294934 -0.916524
  outer loop
   vertex -3.90059 52.0191 -128.23
   vertex -8.72673 47.2178 -125.262
   vertex -6.59859 56.3039 -128.813
  endloop
 endfacet
 facet normal -0.270179 -0.294933 -0.916525
  outer loop
   vertex -10.9512 47.8419 -124.807
   vertex -13.8777 51.6414 -125.167
   vertex -10.1865 47.6326 -124.965
  endloop
 endfacet
 facet normal -0.270177 -0.294917 -0.916531
  outer loop
   vertex -7.26868 56.7505 -128.759
   vertex -6.59859 56.3039 -128.813
   vertex -10.4081 57.13 -127.956
  endloop
 endfacet
 facet normal -0.27018 -0.294935 -0.916524
  outer loop
   vertex -6.59859 56.3039 -128.813
   vertex -8.72673 47.2178 -125.262
   vertex -10.4081 57.13 -127.956
  endloop
 endfacet
 facet normal -0.27018 -0.294935 -0.916524
  outer loop
   vertex -13.8777 51.6414 -125.167
   vertex -13.9601 52.4588 -125.406
   vertex -10.1865 47.6326 -124.965
  endloop
 endfacet
 facet normal -0.270181 -0.294935 -0.916524
  outer loop
   vertex -10.4081 57.13 -127.956
   vertex -8.72673 47.2178 -125.262
   vertex -11.1456 56.8524 -127.649
  endloop
 endfacet
 facet normal -0.27018 -0.294934 -0.916524
  outer loop
   vertex -11.1456 56.8524 -127.649
   vertex -8.72673 47.2178 -125.262
   vertex -11.87 56.5297 -127.332
  endloop
 endfacet
 facet normal -0.270176 -0.294933 -0.916526
  outer loop
   vertex -11.87 56.5297 -127.332
   vertex -8.72673 47.2178 -125.262
   vertex -12.5333 56.0882 -126.994
  endloop
 endfacet
 facet normal -0.27018 -0.294935 -0.916524
  outer loop
   vertex -12.5333 56.0882 -126.994
   vertex -8.72673 47.2178 -125.262
   vertex -13.0855 55.5118 -126.646
  endloop
 endfacet
 facet normal -0.270179 -0.294934 -0.916524
  outer loop
   vertex -13.0855 55.5118 -126.646
   vertex -8.72673 47.2178 -125.262
   vertex -13.5084 54.8303 -126.302
  endloop
 endfacet
 facet normal -0.270182 -0.294936 -0.916523
  outer loop
   vertex -13.5084 54.8303 -126.302
   vertex -8.72673 47.2178 -125.262
   vertex -13.7945 54.0756 -125.975
  endloop
 endfacet
 facet normal -0.270179 -0.294934 -0.916524
  outer loop
   vertex -13.7945 54.0756 -125.975
   vertex -8.72673 47.2178 -125.262
   vertex -13.9429 53.2764 -125.674
  endloop
 endfacet
 facet normal -0.270183 -0.294937 -0.916522
  outer loop
   vertex -13.9601 52.4588 -125.406
   vertex -13.9429 53.2764 -125.674
   vertex -10.1865 47.6326 -124.965
  endloop
 endfacet
 facet normal -0.270178 -0.294934 -0.916525
  outer loop
   vertex -10.1865 47.6326 -124.965
   vertex -13.9429 53.2764 -125.674
   vertex -9.4558 47.4378 -125.118
  endloop
 endfacet
 facet normal -0.270185 -0.294938 -0.916521
  outer loop
   vertex -8.72673 47.2178 -125.262
   vertex -9.4558 47.4378 -125.118
   vertex -13.9429 53.2764 -125.674
  endloop
 endfacet
endsolid
