solid ascii
 facet normal -0.709227 -0.0315688 0.704273
  outer loop
   vertex -3.01844 3.672 6.14636
   vertex -2.15755 2.22572 6.94848
   vertex -3.28244 5.46906 5.96105
  endloop
 endfacet
 facet normal -0.709227 -0.0315688 0.704273
  outer loop
   vertex -3.28244 5.46906 5.96105
   vertex -2.15755 2.22572 6.94848
   vertex -2.92714 7.28408 6.40021
  endloop
 endfacet
 facet normal -0.709227 -0.0315687 0.704273
  outer loop
   vertex -2.15755 2.22572 6.94848
   vertex -1.10832 1.12576 7.95578
   vertex -2.92714 7.28408 6.40021
  endloop
 endfacet
 facet normal -0.709227 -0.0315688 0.704273
  outer loop
   vertex -2.92714 7.28408 6.40021
   vertex -1.10832 1.12576 7.95578
   vertex -2.42654 8.8887 6.97625
  endloop
 endfacet
 facet normal -0.709227 -0.031571 0.704273
  outer loop
   vertex 7.38088 16.4722 17.1926
   vertex 6.2722 16.3188 16.0692
   vertex 8.39276 15.9298 18.1873
  endloop
 endfacet
 facet normal -0.709227 -0.0315689 0.704273
  outer loop
   vertex 8.39276 15.9298 18.1873
   vertex 6.2722 16.3188 16.0692
   vertex 9.27273 15.021 19.0327
  endloop
 endfacet
 facet normal -0.709227 -0.0315682 0.704273
  outer loop
   vertex 6.2722 16.3188 16.0692
   vertex 5.26751 15.8933 15.0384
   vertex 9.27273 15.021 19.0327
  endloop
 endfacet
 facet normal -0.709227 -0.0315688 0.704273
  outer loop
   vertex -1.10832 1.12576 7.95578
   vertex -0.107843 0.18785 8.92125
   vertex -2.42654 8.8887 6.97625
  endloop
 endfacet
 facet normal -0.709227 -0.0315676 0.704273
  outer loop
   vertex 2.35551 16.1905 12.1192
   vertex 1.41547 15.689 11.1501
   vertex 3.38837 16.141 13.1571
  endloop
 endfacet
 facet normal -0.709227 -0.0315688 0.704273
  outer loop
   vertex -0.107843 0.18785 8.92125
   vertex 0.921041 -0.519773 9.92565
   vertex -2.42654 8.8887 6.97625
  endloop
 endfacet
 facet normal -0.709227 -0.0315689 0.704273
  outer loop
   vertex 0.921041 -0.519773 9.92565
   vertex 2.02482 -0.81302 11.024
   vertex -2.42654 8.8887 6.97625
  endloop
 endfacet
 facet normal -0.709227 -0.0315688 0.704273
  outer loop
   vertex 2.02482 -0.81302 11.024
   vertex 3.09259 -0.791454 12.1003
   vertex -2.42654 8.8887 6.97625
  endloop
 endfacet
 facet normal -0.709227 -0.0315684 0.704273
  outer loop
   vertex 1.41547 15.689 11.1501
   vertex 0.566449 14.9218 10.2607
   vertex 3.38837 16.141 13.1571
  endloop
 endfacet
 facet normal -0.709226 -0.0315699 0.704273
  outer loop
   vertex 3.38837 16.141 13.1571
   vertex 0.566449 14.9218 10.2607
   vertex 4.36039 15.8453 14.1227
  endloop
 endfacet
 facet normal -0.709227 -0.0315688 0.704273
  outer loop
   vertex -2.42654 8.8887 6.97625
   vertex 3.09259 -0.791454 12.1003
   vertex -2.12882 10.4079 7.34417
  endloop
 endfacet
 facet normal -0.709226 -0.0315692 0.704274
  outer loop
   vertex 10.7995 0.987987 19.9412
   vertex 11.4687 2.26074 20.6721
   vertex 9.86186 0.106236 18.9574
  endloop
 endfacet
 facet normal -0.709227 -0.0315688 0.704273
  outer loop
   vertex 9.86186 0.106236 18.9574
   vertex 11.4687 2.26074 20.6721
   vertex 8.81778 -0.418363 17.8825
  endloop
 endfacet
 facet normal -0.709227 -0.0315687 0.704273
  outer loop
   vertex 11.4687 2.26074 20.6721
   vertex 11.9329 3.71726 21.2049
   vertex 8.81778 -0.418363 17.8825
  endloop
 endfacet
 facet normal -0.709227 -0.031569 0.704273
  outer loop
   vertex 12.0635 11.8739 21.702
   vertex 11.1838 13.1401 20.8729
   vertex 12.6235 10.296 22.1952
  endloop
 endfacet
 facet normal -0.709226 -0.0315686 0.704274
  outer loop
   vertex 12.6235 10.296 22.1952
   vertex 11.1838 13.1401 20.8729
   vertex 12.8245 8.56683 22.3201
  endloop
 endfacet
 facet normal -0.709226 -0.0315687 0.704274
  outer loop
   vertex 12.8245 8.56683 22.3201
   vertex 11.1838 13.1401 20.8729
   vertex 12.6928 6.84523 22.1103
  endloop
 endfacet
 facet normal -0.709227 -0.0315691 0.704273
  outer loop
   vertex 11.1838 13.1401 20.8729
   vertex 10.1883 14.1133 19.914
   vertex 12.6928 6.84523 22.1103
  endloop
 endfacet
 facet normal -0.709227 -0.031569 0.704273
  outer loop
   vertex 12.6928 6.84523 22.1103
   vertex 10.1883 14.1133 19.914
   vertex 12.3451 5.23267 21.688
  endloop
 endfacet
 facet normal -0.709227 -0.0315688 0.704273
  outer loop
   vertex 12.3451 5.23267 21.688
   vertex 10.1883 14.1133 19.914
   vertex 11.9329 3.71726 21.2049
  endloop
 endfacet
 facet normal -0.709227 -0.0315688 0.704273
  outer loop
   vertex 11.9329 3.71726 21.2049
   vertex 10.1883 14.1133 19.914
   vertex 8.81778 -0.418363 17.8825
  endloop
 endfacet
 facet normal -0.709227 -0.0315688 0.704273
  outer loop
   vertex 10.1883 14.1133 19.914
   vertex 9.27273 15.021 19.0327
   vertex 8.81778 -0.418363 17.8825
  endloop
 endfacet
 facet normal -0.709227 -0.0315688 0.704273
  outer loop
   vertex 9.27273 15.021 19.0327
   vertex 5.26751 15.8933 15.0384
   vertex 8.81778 -0.418363 17.8825
  endloop
 endfacet
 facet normal -0.709227 -0.0315688 0.704273
  outer loop
   vertex 8.81778 -0.418363 17.8825
   vertex 5.26751 15.8933 15.0384
   vertex 7.81793 -0.797724 16.8586
  endloop
 endfacet
 facet normal -0.709227 -0.0315688 0.704273
  outer loop
   vertex -2.12882 10.4079 7.34417
   vertex 3.09259 -0.791454 12.1003
   vertex -1.80814 11.9053 7.73423
  endloop
 endfacet
 facet normal -0.709227 -0.0315688 0.704273
  outer loop
   vertex -1.80814 11.9053 7.73423
   vertex 3.09259 -0.791454 12.1003
   vertex -1.1818 13.1827 8.42223
  endloop
 endfacet
 facet normal -0.709227 -0.0315687 0.704273
  outer loop
   vertex -1.1818 13.1827 8.42223
   vertex 3.09259 -0.791454 12.1003
   vertex -0.315319 14.1312 9.33732
  endloop
 endfacet
 facet normal -0.709227 -0.0315689 0.704273
  outer loop
   vertex -0.315319 14.1312 9.33732
   vertex 3.09259 -0.791454 12.1003
   vertex 0.566449 14.9218 10.2607
  endloop
 endfacet
 facet normal -0.709227 -0.0315688 0.704273
  outer loop
   vertex 0.566449 14.9218 10.2607
   vertex 3.09259 -0.791454 12.1003
   vertex 4.36039 15.8453 14.1227
  endloop
 endfacet
 facet normal -0.709227 -0.0315688 0.704273
  outer loop
   vertex 7.81793 -0.797724 16.8586
   vertex 5.26751 15.8933 15.0384
   vertex 6.86142 -1.10623 15.8815
  endloop
 endfacet
 facet normal -0.709227 -0.0315687 0.704273
  outer loop
   vertex 3.09259 -0.791454 12.1003
   vertex 4.0463 -0.804338 13.0601
   vertex 4.36039 15.8453 14.1227
  endloop
 endfacet
 facet normal -0.709227 -0.0315688 0.704273
  outer loop
   vertex 6.86142 -1.10623 15.8815
   vertex 5.26751 15.8933 15.0384
   vertex 5.89974 -1.20257 14.9088
  endloop
 endfacet
 facet normal -0.709227 -0.0315688 0.704273
  outer loop
   vertex 5.89974 -1.20257 14.9088
   vertex 5.26751 15.8933 15.0384
   vertex 4.95431 -1.02077 13.9648
  endloop
 endfacet
 facet normal -0.709227 -0.0315688 0.704273
  outer loop
   vertex 4.95431 -1.02077 13.9648
   vertex 5.26751 15.8933 15.0384
   vertex 4.0463 -0.804338 13.0601
  endloop
 endfacet
 facet normal -0.709227 -0.0315687 0.704273
  outer loop
   vertex 4.0463 -0.804338 13.0601
   vertex 5.26751 15.8933 15.0384
   vertex 4.36039 15.8453 14.1227
  endloop
 endfacet
endsolid
