solid ascii
 facet normal -0.696005 -0.136084 0.705023
  outer loop
   vertex 1.9619 8.65072 -9.74816
   vertex 3.12099 7.46638 -8.8325
   vertex 1.13193 10.2607 -10.2567
  endloop
 endfacet
 facet normal -0.696005 -0.136084 0.705023
  outer loop
   vertex 1.13193 10.2607 -10.2567
   vertex 3.12099 7.46638 -8.8325
   vertex 0.61776 12.0603 -10.417
  endloop
 endfacet
 facet normal -0.696005 -0.136084 0.705024
  outer loop
   vertex 3.12099 7.46638 -8.8325
   vertex 4.39555 6.68247 -7.72555
   vertex 0.61776 12.0603 -10.417
  endloop
 endfacet
 facet normal -0.696005 -0.136084 0.705023
  outer loop
   vertex 0.61776 12.0603 -10.417
   vertex 4.39555 6.68247 -7.72555
   vertex 0.252184 13.8728 -10.428
  endloop
 endfacet
 facet normal -0.696005 -0.136084 0.705023
  outer loop
   vertex 4.39555 6.68247 -7.72555
   vertex 5.62704 6.10731 -6.62083
   vertex 0.252184 13.8728 -10.428
  endloop
 endfacet
 facet normal -0.696005 -0.136084 0.705024
  outer loop
   vertex 0.252184 13.8728 -10.428
   vertex 5.62704 6.10731 -6.62083
   vertex -0.00822496 15.6909 -10.3342
  endloop
 endfacet
 facet normal -0.696005 -0.136084 0.705023
  outer loop
   vertex -0.00822496 15.6909 -10.3342
   vertex 5.62704 6.10731 -6.62083
   vertex -0.0158861 17.4964 -9.99324
  endloop
 endfacet
 facet normal -0.696005 -0.136084 0.705023
  outer loop
   vertex -0.0158861 17.4964 -9.99324
   vertex 5.62704 6.10731 -6.62083
   vertex 0.339654 19.1639 -9.32039
  endloop
 endfacet
 facet normal -0.696005 -0.136084 0.705023
  outer loop
   vertex 0.339654 19.1639 -9.32039
   vertex 5.62704 6.10731 -6.62083
   vertex 0.996102 20.5811 -8.39879
  endloop
 endfacet
 facet normal -0.696005 -0.136084 0.705023
  outer loop
   vertex 0.996102 20.5811 -8.39879
   vertex 5.62704 6.10731 -6.62083
   vertex 1.84443 21.7086 -7.34369
  endloop
 endfacet
 facet normal -0.696005 -0.136084 0.705023
  outer loop
   vertex 1.84443 21.7086 -7.34369
   vertex 5.62704 6.10731 -6.62083
   vertex 2.7559 22.6049 -6.27086
  endloop
 endfacet
 facet normal -0.696005 -0.136084 0.705023
  outer loop
   vertex 5.62704 6.10731 -6.62083
   vertex 6.8075 5.66325 -5.54118
   vertex 2.7559 22.6049 -6.27086
  endloop
 endfacet
 facet normal -0.696005 -0.136084 0.705023
  outer loop
   vertex 15.4204 8.00833 3.41421
   vertex 15.9879 9.42868 4.24858
   vertex 14.5397 6.95482 2.34137
  endloop
 endfacet
 facet normal -0.696005 -0.136085 0.705024
  outer loop
   vertex 14.5397 6.95482 2.34137
   vertex 15.9879 9.42868 4.24858
   vertex 13.4739 6.28469 1.15992
  endloop
 endfacet
 facet normal -0.696005 -0.136084 0.705023
  outer loop
   vertex 15.9879 9.42868 4.24858
   vertex 16.3277 11.002 4.88772
   vertex 13.4739 6.28469 1.15992
  endloop
 endfacet
 facet normal -0.696005 -0.136084 0.705023
  outer loop
   vertex 13.4739 6.28469 1.15992
   vertex 16.3277 11.002 4.88772
   vertex 12.3668 5.86928 -0.0132233
  endloop
 endfacet
 facet normal -0.696005 -0.136084 0.705023
  outer loop
   vertex 6.8075 5.66325 -5.54118
   vertex 7.96379 5.4008 -4.45034
   vertex 2.7559 22.6049 -6.27086
  endloop
 endfacet
 facet normal -0.696005 -0.136084 0.705023
  outer loop
   vertex 2.7559 22.6049 -6.27086
   vertex 7.96379 5.4008 -4.45034
   vertex 3.62223 23.4249 -5.25734
  endloop
 endfacet
 facet normal -0.696005 -0.136084 0.705023
  outer loop
   vertex 7.96379 5.4008 -4.45034
   vertex 9.09183 5.34279 -3.34793
   vertex 3.62223 23.4249 -5.25734
  endloop
 endfacet
 facet normal -0.696005 -0.136084 0.705024
  outer loop
   vertex 16.3277 11.002 4.88772
   vertex 16.6039 12.5992 5.46871
   vertex 12.3668 5.86928 -0.0132233
  endloop
 endfacet
 facet normal -0.696005 -0.136084 0.705023
  outer loop
   vertex 9.09183 5.34279 -3.34793
   vertex 10.1881 5.42723 -2.24939
   vertex 3.62223 23.4249 -5.25734
  endloop
 endfacet
 facet normal -0.696005 -0.136084 0.705023
  outer loop
   vertex 12.3668 5.86928 -0.0132233
   vertex 16.6039 12.5992 5.46871
   vertex 11.2729 5.59857 -1.14536
  endloop
 endfacet
 facet normal -0.696005 -0.136084 0.705023
  outer loop
   vertex 10.1881 5.42723 -2.24939
   vertex 11.2729 5.59857 -1.14536
   vertex 3.62223 23.4249 -5.25734
  endloop
 endfacet
 facet normal -0.696005 -0.136084 0.705023
  outer loop
   vertex 11.2729 5.59857 -1.14536
   vertex 16.6039 12.5992 5.46871
   vertex 3.62223 23.4249 -5.25734
  endloop
 endfacet
 facet normal -0.696005 -0.136084 0.705023
  outer loop
   vertex 16.6039 12.5992 5.46871
   vertex 16.813 14.2598 5.99568
   vertex 3.62223 23.4249 -5.25734
  endloop
 endfacet
 facet normal -0.696005 -0.136083 0.705024
  outer loop
   vertex 16.813 14.2598 5.99568
   vertex 16.8161 16.0112 6.33676
   vertex 3.62223 23.4249 -5.25734
  endloop
 endfacet
 facet normal -0.696005 -0.136084 0.705023
  outer loop
   vertex 16.8161 16.0112 6.33676
   vertex 16.5365 17.7845 6.40299
   vertex 3.62223 23.4249 -5.25734
  endloop
 endfacet
 facet normal -0.696005 -0.136085 0.705023
  outer loop
   vertex 16.5365 17.7845 6.40299
   vertex 16.0281 19.5055 6.23328
   vertex 3.62223 23.4249 -5.25734
  endloop
 endfacet
 facet normal -0.696005 -0.136084 0.705023
  outer loop
   vertex 16.0281 19.5055 6.23328
   vertex 15.3506 21.1434 5.88061
   vertex 3.62223 23.4249 -5.25734
  endloop
 endfacet
 facet normal -0.696005 -0.136084 0.705023
  outer loop
   vertex 15.3506 21.1434 5.88061
   vertex 14.5123 22.6596 5.34571
   vertex 3.62223 23.4249 -5.25734
  endloop
 endfacet
 facet normal -0.696005 -0.136084 0.705023
  outer loop
   vertex 14.5123 22.6596 5.34571
   vertex 13.5132 23.9896 4.6161
   vertex 3.62223 23.4249 -5.25734
  endloop
 endfacet
 facet normal -0.696005 -0.136084 0.705023
  outer loop
   vertex 13.5132 23.9896 4.6161
   vertex 12.371 25.0527 3.69372
   vertex 3.62223 23.4249 -5.25734
  endloop
 endfacet
 facet normal -0.696005 -0.136084 0.705023
  outer loop
   vertex 12.371 25.0527 3.69372
   vertex 11.1257 25.7589 2.60063
   vertex 3.62223 23.4249 -5.25734
  endloop
 endfacet
 facet normal -0.696005 -0.136084 0.705023
  outer loop
   vertex 11.1257 25.7589 2.60063
   vertex 9.84705 26.0549 1.39549
   vertex 3.62223 23.4249 -5.25734
  endloop
 endfacet
 facet normal -0.696005 -0.136084 0.705023
  outer loop
   vertex 9.84705 26.0549 1.39549
   vertex 8.61547 26.0429 0.177343
   vertex 3.62223 23.4249 -5.25734
  endloop
 endfacet
 facet normal -0.696005 -0.136084 0.705023
  outer loop
   vertex 8.61547 26.0429 0.177343
   vertex 7.45463 25.8812 -0.999846
   vertex 3.62223 23.4249 -5.25734
  endloop
 endfacet
 facet normal -0.696005 -0.136085 0.705024
  outer loop
   vertex 7.45463 25.8812 -0.999846
   vertex 6.35347 25.5869 -2.14372
   vertex 3.62223 23.4249 -5.25734
  endloop
 endfacet
 facet normal -0.696005 -0.136084 0.705023
  outer loop
   vertex 6.35347 25.5869 -2.14372
   vertex 5.3377 25.0572 -3.24875
   vertex 3.62223 23.4249 -5.25734
  endloop
 endfacet
 facet normal -0.696007 -0.136081 0.705022
  outer loop
   vertex 3.62223 23.4249 -5.25734
   vertex 5.3377 25.0572 -3.24875
   vertex 4.44549 24.28 -4.27956
  endloop
 endfacet
endsolid
