solid ascii
 facet normal 0.0179256 -0.432989 -0.901221
  outer loop
   vertex -15.7992 44.4826 -99.434
   vertex -14.5306 45.4687 -99.8825
   vertex -16.7215 43.2238 -98.8475
  endloop
 endfacet
 facet normal 0.0179344 -0.432996 -0.901218
  outer loop
   vertex -14.5306 45.4687 -99.8825
   vertex -13.0279 46.1192 -100.165
   vertex -16.7215 43.2238 -98.8475
  endloop
 endfacet
 facet normal 0.0179272 -0.432988 -0.901221
  outer loop
   vertex -16.7215 43.2238 -98.8475
   vertex -13.0279 46.1192 -100.165
   vertex -17.3579 41.8497 -98.2
  endloop
 endfacet
 facet normal 0.0179231 -0.432985 -0.901223
  outer loop
   vertex -13.0279 46.1192 -100.165
   vertex -11.4675 46.5362 -100.334
   vertex -17.3579 41.8497 -98.2
  endloop
 endfacet
 facet normal 0.0179285 -0.43299 -0.90122
  outer loop
   vertex -17.3579 41.8497 -98.2
   vertex -11.4675 46.5362 -100.334
   vertex -17.8167 40.4506 -97.5369
  endloop
 endfacet
 facet normal 0.0179284 -0.43299 -0.90122
  outer loop
   vertex -11.4675 46.5362 -100.334
   vertex -9.92202 46.8385 -100.449
   vertex -17.8167 40.4506 -97.5369
  endloop
 endfacet
 facet normal 0.0179279 -0.43299 -0.901221
  outer loop
   vertex -17.8167 40.4506 -97.5369
   vertex -9.92202 46.8385 -100.449
   vertex -18.153 39.0376 -96.8647
  endloop
 endfacet
 facet normal 0.0179256 -0.432988 -0.901222
  outer loop
   vertex 3.09489 38.8666 -96.3599
   vertex 2.95 37.3651 -95.6414
   vertex 2.77915 40.3451 -97.0765
  endloop
 endfacet
 facet normal 0.0179375 -0.432987 -0.901222
  outer loop
   vertex 2.77915 40.3451 -97.0765
   vertex 2.95 37.3651 -95.6414
   vertex 2.11247 41.7156 -97.7483
  endloop
 endfacet
 facet normal 0.0179187 -0.43299 -0.901221
  outer loop
   vertex 2.95 37.3651 -95.6414
   vertex 2.53041 35.928 -94.9593
   vertex 2.11247 41.7156 -97.7483
  endloop
 endfacet
 facet normal 0.017925 -0.43299 -0.901221
  outer loop
   vertex 2.11247 41.7156 -97.7483
   vertex 2.53041 35.928 -94.9593
   vertex 1.27546 42.9841 -98.3743
  endloop
 endfacet
 facet normal 0.0179393 -0.432997 -0.901217
  outer loop
   vertex 0.595492 31.9026 -93.0638
   vertex -0.619715 30.9054 -92.6089
   vertex 1.4794 33.153 -93.647
  endloop
 endfacet
 facet normal 0.0179342 -0.432993 -0.901219
  outer loop
   vertex 1.4794 33.153 -93.647
   vertex -0.619715 30.9054 -92.6089
   vertex 2.05859 34.5309 -94.2975
  endloop
 endfacet
 facet normal 0.0179225 -0.432986 -0.901222
  outer loop
   vertex -0.619715 30.9054 -92.6089
   vertex -1.98275 30.1148 -92.2562
   vertex 2.05859 34.5309 -94.2975
  endloop
 endfacet
 facet normal 0.0179283 -0.43299 -0.90122
  outer loop
   vertex -9.92202 46.8385 -100.449
   vertex -8.37188 47.0338 -100.512
   vertex -18.153 39.0376 -96.8647
  endloop
 endfacet
 facet normal 0.0179305 -0.432989 -0.901221
  outer loop
   vertex 1.27546 42.9841 -98.3743
   vertex 2.53041 35.928 -94.9593
   vertex 0.310664 44.1649 -98.9608
  endloop
 endfacet
 facet normal 0.0179192 -0.432991 -0.90122
  outer loop
   vertex 0.310664 44.1649 -98.9608
   vertex 2.53041 35.928 -94.9593
   vertex -0.835072 45.2067 -99.4842
  endloop
 endfacet
 facet normal 0.0179317 -0.432988 -0.901221
  outer loop
   vertex -0.835072 45.2067 -99.4842
   vertex 2.53041 35.928 -94.9593
   vertex -2.17237 46.0411 -99.9117
  endloop
 endfacet
 facet normal 0.017923 -0.432991 -0.90122
  outer loop
   vertex -2.17237 46.0411 -99.9117
   vertex 2.53041 35.928 -94.9593
   vertex -3.65227 46.6357 -100.227
  endloop
 endfacet
 facet normal 0.0179322 -0.432987 -0.901222
  outer loop
   vertex -3.65227 46.6357 -100.227
   vertex 2.53041 35.928 -94.9593
   vertex -5.21499 46.9791 -100.423
  endloop
 endfacet
 facet normal 0.0179262 -0.43299 -0.90122
  outer loop
   vertex -5.21499 46.9791 -100.423
   vertex 2.53041 35.928 -94.9593
   vertex -6.80072 47.0955 -100.51
  endloop
 endfacet
 facet normal 0.0179318 -0.432986 -0.901222
  outer loop
   vertex 2.53041 35.928 -94.9593
   vertex 2.05859 34.5309 -94.2975
   vertex -6.80072 47.0955 -100.51
  endloop
 endfacet
 facet normal 0.0179265 -0.432989 -0.901221
  outer loop
   vertex 2.05859 34.5309 -94.2975
   vertex -1.98275 30.1148 -92.2562
   vertex -6.80072 47.0955 -100.51
  endloop
 endfacet
 facet normal 0.0179251 -0.43299 -0.901221
  outer loop
   vertex -6.80072 47.0955 -100.51
   vertex -1.98275 30.1148 -92.2562
   vertex -8.37188 47.0338 -100.512
  endloop
 endfacet
 facet normal 0.0179273 -0.432989 -0.901221
  outer loop
   vertex -8.37188 47.0338 -100.512
   vertex -1.98275 30.1148 -92.2562
   vertex -18.153 39.0376 -96.8647
  endloop
 endfacet
 facet normal 0.0179285 -0.432987 -0.901222
  outer loop
   vertex -18.153 39.0376 -96.8647
   vertex -1.98275 30.1148 -92.2562
   vertex -18.3932 37.5931 -96.1755
  endloop
 endfacet
 facet normal 0.0179259 -0.432992 -0.90122
  outer loop
   vertex -18.3932 37.5931 -96.1755
   vertex -1.98275 30.1148 -92.2562
   vertex -18.4398 36.1052 -95.4616
  endloop
 endfacet
 facet normal 0.0179276 -0.432988 -0.901221
  outer loop
   vertex -18.4398 36.1052 -95.4616
   vertex -1.98275 30.1148 -92.2562
   vertex -18.1232 34.6352 -94.749
  endloop
 endfacet
 facet normal 0.0179271 -0.432989 -0.901221
  outer loop
   vertex -18.1232 34.6352 -94.749
   vertex -1.98275 30.1148 -92.2562
   vertex -17.3944 33.2924 -94.0894
  endloop
 endfacet
 facet normal 0.0179282 -0.432985 -0.901223
  outer loop
   vertex -1.98275 30.1148 -92.2562
   vertex -3.37802 29.4142 -91.9473
   vertex -17.3944 33.2924 -94.0894
  endloop
 endfacet
 facet normal 0.0179269 -0.432989 -0.901221
  outer loop
   vertex -3.37802 29.4142 -91.9473
   vertex -4.84087 28.824 -91.6928
   vertex -17.3944 33.2924 -94.0894
  endloop
 endfacet
 facet normal 0.017927 -0.432989 -0.901221
  outer loop
   vertex -4.84087 28.824 -91.6928
   vertex -6.3994 28.4566 -91.5473
   vertex -17.3944 33.2924 -94.0894
  endloop
 endfacet
 facet normal 0.0179262 -0.43299 -0.90122
  outer loop
   vertex -6.3994 28.4566 -91.5473
   vertex -8.00784 28.367 -91.5363
   vertex -17.3944 33.2924 -94.0894
  endloop
 endfacet
 facet normal 0.0179286 -0.432987 -0.901222
  outer loop
   vertex -8.00784 28.367 -91.5363
   vertex -9.60705 28.5131 -91.6383
   vertex -17.3944 33.2924 -94.0894
  endloop
 endfacet
 facet normal 0.017925 -0.432991 -0.90122
  outer loop
   vertex -9.60705 28.5131 -91.6383
   vertex -11.1669 28.8525 -91.8324
   vertex -17.3944 33.2924 -94.0894
  endloop
 endfacet
 facet normal 0.0179258 -0.43299 -0.90122
  outer loop
   vertex -11.1669 28.8525 -91.8324
   vertex -12.6575 29.3905 -92.1205
   vertex -17.3944 33.2924 -94.0894
  endloop
 endfacet
 facet normal 0.0179397 -0.432977 -0.901227
  outer loop
   vertex -12.6575 29.3905 -92.1205
   vertex -14.036 30.1356 -92.5059
   vertex -17.3944 33.2924 -94.0894
  endloop
 endfacet
 facet normal 0.0179395 -0.432977 -0.901226
  outer loop
   vertex -17.3944 33.2924 -94.0894
   vertex -14.036 30.1356 -92.5059
   vertex -16.4025 32.1112 -93.5022
  endloop
 endfacet
 facet normal 0.0178946 -0.433021 -0.901206
  outer loop
   vertex -15.2793 31.0578 -92.9737
   vertex -16.4025 32.1112 -93.5022
   vertex -14.036 30.1356 -92.5059
  endloop
 endfacet
endsolid
