solid ascii
 facet normal -0.300136 -0.0844986 -0.950147
  outer loop
   vertex -8.10583 35.9508 -139.818
   vertex -9.06703 35.3152 -139.458
   vertex -7.60825 37.0306 -140.071
  endloop
 endfacet
 facet normal -0.300112 -0.0845205 -0.950152
  outer loop
   vertex -7.60825 37.0306 -140.071
   vertex -9.06703 35.3152 -139.458
   vertex -7.52127 38.2625 -140.208
  endloop
 endfacet
 facet normal -0.300112 -0.0845205 -0.950152
  outer loop
   vertex -9.06703 35.3152 -139.458
   vertex -10.1437 34.9597 -139.086
   vertex -7.52127 38.2625 -140.208
  endloop
 endfacet
 facet normal -0.300109 -0.084523 -0.950153
  outer loop
   vertex -7.52127 38.2625 -140.208
   vertex -10.1437 34.9597 -139.086
   vertex -7.43749 39.3553 -140.332
  endloop
 endfacet
 facet normal -0.300115 -0.0845191 -0.950151
  outer loop
   vertex -10.1437 34.9597 -139.086
   vertex -11.1388 34.5715 -138.737
   vertex -7.43749 39.3553 -140.332
  endloop
 endfacet
 facet normal -0.300112 -0.0844855 -0.950155
  outer loop
   vertex -13.2142 34.1706 -138.046
   vertex -14.251 34.5091 -137.749
   vertex -12.1448 34.2134 -138.388
  endloop
 endfacet
 facet normal -0.300116 -0.0845261 -0.95015
  outer loop
   vertex -12.1448 34.2134 -138.388
   vertex -14.251 34.5091 -137.749
   vertex -11.1388 34.5715 -138.737
  endloop
 endfacet
 facet normal -0.300116 -0.0845178 -0.950151
  outer loop
   vertex -11.1388 34.5715 -138.737
   vertex -14.251 34.5091 -137.749
   vertex -7.43749 39.3553 -140.332
  endloop
 endfacet
 facet normal -0.300115 -0.0845203 -0.950151
  outer loop
   vertex -14.251 34.5091 -137.749
   vertex -15.1914 34.9849 -137.494
   vertex -7.43749 39.3553 -140.332
  endloop
 endfacet
 facet normal -0.300095 -0.0845198 -0.950158
  outer loop
   vertex -6.9393 41.3874 -140.67
   vertex -7.15435 40.3463 -140.51
   vertex -7.06345 42.4519 -140.726
  endloop
 endfacet
 facet normal -0.300122 -0.0845177 -0.950149
  outer loop
   vertex -7.06345 42.4519 -140.726
   vertex -7.15435 40.3463 -140.51
   vertex -7.47689 43.44 -140.683
  endloop
 endfacet
 facet normal -0.300126 -0.0845181 -0.950148
  outer loop
   vertex -7.47689 43.44 -140.683
   vertex -7.15435 40.3463 -140.51
   vertex -8.03286 44.3221 -140.586
  endloop
 endfacet
 facet normal -0.300127 -0.0845182 -0.950148
  outer loop
   vertex -7.15435 40.3463 -140.51
   vertex -7.43749 39.3553 -140.332
   vertex -8.03286 44.3221 -140.586
  endloop
 endfacet
 facet normal -0.300116 -0.0845171 -0.950151
  outer loop
   vertex -7.43749 39.3553 -140.332
   vertex -15.1914 34.9849 -137.494
   vertex -8.03286 44.3221 -140.586
  endloop
 endfacet
 facet normal -0.300155 -0.0845433 -0.950136
  outer loop
   vertex -19.4136 37.8081 -136.412
   vertex -19.7961 38.8295 -136.382
   vertex -18.7613 36.9428 -136.541
  endloop
 endfacet
 facet normal -0.30011 -0.0845171 -0.950153
  outer loop
   vertex -18.7613 36.9428 -136.541
   vertex -19.7961 38.8295 -136.382
   vertex -17.9169 36.2897 -136.749
  endloop
 endfacet
 facet normal -0.300119 -0.0845246 -0.950149
  outer loop
   vertex -17.9169 36.2897 -136.749
   vertex -19.7961 38.8295 -136.382
   vertex -17.0042 35.8046 -136.994
  endloop
 endfacet
 facet normal -0.300103 -0.0845078 -0.950156
  outer loop
   vertex -19.7961 38.8295 -136.382
   vertex -20.0307 39.8766 -136.401
   vertex -17.0042 35.8046 -136.994
  endloop
 endfacet
 facet normal -0.300113 -0.0845204 -0.950152
  outer loop
   vertex -8.03286 44.3221 -140.586
   vertex -15.1914 34.9849 -137.494
   vertex -8.65154 45.1149 -140.461
  endloop
 endfacet
 facet normal -0.300109 -0.0845227 -0.950153
  outer loop
   vertex -15.1914 34.9849 -137.494
   vertex -16.0926 35.402 -137.247
   vertex -8.65154 45.1149 -140.461
  endloop
 endfacet
 facet normal -0.300117 -0.084516 -0.950151
  outer loop
   vertex -8.65154 45.1149 -140.461
   vertex -16.0926 35.402 -137.247
   vertex -9.31503 45.836 -140.315
  endloop
 endfacet
 facet normal -0.300122 -0.0845128 -0.95015
  outer loop
   vertex -16.0926 35.402 -137.247
   vertex -17.0042 35.8046 -136.994
   vertex -9.31503 45.836 -140.315
  endloop
 endfacet
 facet normal -0.300115 -0.0845181 -0.950151
  outer loop
   vertex -17.0042 35.8046 -136.994
   vertex -20.0307 39.8766 -136.401
   vertex -9.31503 45.836 -140.315
  endloop
 endfacet
 facet normal -0.300115 -0.084519 -0.950151
  outer loop
   vertex -20.0307 39.8766 -136.401
   vertex -20.2827 40.9156 -136.413
   vertex -9.31503 45.836 -140.315
  endloop
 endfacet
 facet normal -0.300115 -0.0845196 -0.950151
  outer loop
   vertex -20.2827 40.9156 -136.413
   vertex -20.5023 42.0007 -136.441
   vertex -9.31503 45.836 -140.315
  endloop
 endfacet
 facet normal -0.300115 -0.0845176 -0.950151
  outer loop
   vertex -20.5023 42.0007 -136.441
   vertex -20.5176 43.125 -136.536
   vertex -9.31503 45.836 -140.315
  endloop
 endfacet
 facet normal -0.300115 -0.0845204 -0.950151
  outer loop
   vertex -20.5176 43.125 -136.536
   vertex -20.2543 44.2124 -136.716
   vertex -9.31503 45.836 -140.315
  endloop
 endfacet
 facet normal -0.300117 -0.0845083 -0.950152
  outer loop
   vertex -20.2543 44.2124 -136.716
   vertex -19.7811 45.2155 -136.954
   vertex -9.31503 45.836 -140.315
  endloop
 endfacet
 facet normal -0.300116 -0.0845165 -0.950151
  outer loop
   vertex -19.7811 45.2155 -136.954
   vertex -19.1682 46.1268 -137.229
   vertex -9.31503 45.836 -140.315
  endloop
 endfacet
 facet normal -0.300116 -0.0845288 -0.95015
  outer loop
   vertex -19.1682 46.1268 -137.229
   vertex -18.4485 46.9476 -137.529
   vertex -9.31503 45.836 -140.315
  endloop
 endfacet
 facet normal -0.300115 -0.0845129 -0.950152
  outer loop
   vertex -18.4485 46.9476 -137.529
   vertex -17.6374 47.6813 -137.851
   vertex -9.31503 45.836 -140.315
  endloop
 endfacet
 facet normal -0.300115 -0.0845131 -0.950152
  outer loop
   vertex -17.6374 47.6813 -137.851
   vertex -16.7195 48.2839 -138.194
   vertex -9.31503 45.836 -140.315
  endloop
 endfacet
 facet normal -0.300117 -0.0845195 -0.950151
  outer loop
   vertex -16.7195 48.2839 -138.194
   vertex -15.6875 48.6506 -138.553
   vertex -9.31503 45.836 -140.315
  endloop
 endfacet
 facet normal -0.300115 -0.0845145 -0.950152
  outer loop
   vertex -15.6875 48.6506 -138.553
   vertex -14.594 48.7073 -138.903
   vertex -9.31503 45.836 -140.315
  endloop
 endfacet
 facet normal -0.300116 -0.0845168 -0.950151
  outer loop
   vertex -14.594 48.7073 -138.903
   vertex -13.5248 48.5087 -139.223
   vertex -9.31503 45.836 -140.315
  endloop
 endfacet
 facet normal -0.300128 -0.0845384 -0.950146
  outer loop
   vertex -13.5248 48.5087 -139.223
   vertex -12.5277 48.1449 -139.506
   vertex -9.31503 45.836 -140.315
  endloop
 endfacet
 facet normal -0.300122 -0.0845294 -0.950148
  outer loop
   vertex -12.5277 48.1449 -139.506
   vertex -11.6146 47.6712 -139.752
   vertex -9.31503 45.836 -140.315
  endloop
 endfacet
 facet normal -0.300142 -0.0845574 -0.950139
  outer loop
   vertex -11.6146 47.6712 -139.752
   vertex -10.7827 47.117 -139.966
   vertex -9.31503 45.836 -140.315
  endloop
 endfacet
 facet normal -0.29999 -0.0843652 -0.950204
  outer loop
   vertex -9.31503 45.836 -140.315
   vertex -10.7827 47.117 -139.966
   vertex -10.021 46.5024 -140.152
  endloop
 endfacet
endsolid
