solid ascii
 facet normal 0.114807 -0.2376 -0.964555
  outer loop
   vertex -10.9611 52.1537 -124.216
   vertex -10.1088 52.9337 -124.307
   vertex -11.4748 51.1221 -124.023
  endloop
 endfacet
 facet normal 0.114797 -0.237593 -0.964558
  outer loop
   vertex -10.1088 52.9337 -124.307
   vertex -9.03373 53.3809 -124.289
   vertex -11.4748 51.1221 -124.023
  endloop
 endfacet
 facet normal 0.114797 -0.237592 -0.964558
  outer loop
   vertex -11.4748 51.1221 -124.023
   vertex -9.03373 53.3809 -124.289
   vertex -11.7997 50.0639 -123.801
  endloop
 endfacet
 facet normal 0.114796 -0.237592 -0.964558
  outer loop
   vertex -9.03373 53.3809 -124.289
   vertex -7.94868 53.6793 -124.233
   vertex -11.7997 50.0639 -123.801
  endloop
 endfacet
 facet normal 0.114794 -0.23759 -0.964559
  outer loop
   vertex -13.0651 44.68 -122.625
   vertex -13.1334 45.8576 -122.924
   vertex -12.6098 43.6008 -122.305
  endloop
 endfacet
 facet normal 0.114795 -0.237589 -0.964559
  outer loop
   vertex -12.6098 43.6008 -122.305
   vertex -13.1334 45.8576 -122.924
   vertex -11.8751 42.6896 -121.994
  endloop
 endfacet
 facet normal 0.114801 -0.237587 -0.964559
  outer loop
   vertex -13.1334 45.8576 -122.924
   vertex -12.8882 47.0091 -123.178
   vertex -11.8751 42.6896 -121.994
  endloop
 endfacet
 facet normal 0.114805 -0.237586 -0.964558
  outer loop
   vertex -11.8751 42.6896 -121.994
   vertex -12.8882 47.0091 -123.178
   vertex -10.9847 41.9509 -121.706
  endloop
 endfacet
 facet normal 0.114794 -0.23759 -0.964559
  outer loop
   vertex -12.8882 47.0091 -123.178
   vertex -12.5106 48.0703 -123.395
   vertex -10.9847 41.9509 -121.706
  endloop
 endfacet
 facet normal 0.11479 -0.237591 -0.964559
  outer loop
   vertex -10.9847 41.9509 -121.706
   vertex -12.5106 48.0703 -123.395
   vertex -10.0443 41.3272 -121.44
  endloop
 endfacet
 facet normal 0.11479 -0.237607 -0.964555
  outer loop
   vertex -7.03047 39.7258 -120.687
   vertex -8.13165 40.1221 -120.916
   vertex -5.84817 39.6938 -120.538
  endloop
 endfacet
 facet normal 0.114796 -0.237579 -0.964561
  outer loop
   vertex -5.84817 39.6938 -120.538
   vertex -8.13165 40.1221 -120.916
   vertex -4.6945 39.9573 -120.466
  endloop
 endfacet
 facet normal 0.114796 -0.237588 -0.964559
  outer loop
   vertex -8.13165 40.1221 -120.916
   vertex -9.11068 40.7173 -121.179
   vertex -4.6945 39.9573 -120.466
  endloop
 endfacet
 facet normal 0.114793 -0.237598 -0.964557
  outer loop
   vertex -4.6945 39.9573 -120.466
   vertex -9.11068 40.7173 -121.179
   vertex -3.61814 40.3772 -120.441
  endloop
 endfacet
 facet normal 0.114794 -0.237588 -0.964559
  outer loop
   vertex -3.61814 40.3772 -120.441
   vertex -9.11068 40.7173 -121.179
   vertex -2.61371 40.879 -120.445
  endloop
 endfacet
 facet normal 0.114794 -0.23759 -0.964559
  outer loop
   vertex -9.11068 40.7173 -121.179
   vertex -10.0443 41.3272 -121.44
   vertex -2.61371 40.879 -120.445
  endloop
 endfacet
 facet normal 0.114794 -0.23759 -0.964559
  outer loop
   vertex -10.0443 41.3272 -121.44
   vertex -12.5106 48.0703 -123.395
   vertex -2.61371 40.879 -120.445
  endloop
 endfacet
 facet normal 0.114793 -0.237591 -0.964558
  outer loop
   vertex -12.5106 48.0703 -123.395
   vertex -12.1344 49.0666 -123.595
   vertex -2.61371 40.879 -120.445
  endloop
 endfacet
 facet normal 0.114791 -0.237598 -0.964557
  outer loop
   vertex -0.407737 52.9854 -123.165
   vertex 0.366964 52.1372 -122.864
   vertex -1.40756 53.5692 -123.428
  endloop
 endfacet
 facet normal 0.114804 -0.237583 -0.964559
  outer loop
   vertex 0.366964 52.1372 -122.864
   vertex 0.921723 51.1441 -122.553
   vertex -1.40756 53.5692 -123.428
  endloop
 endfacet
 facet normal 0.114794 -0.237592 -0.964558
  outer loop
   vertex -1.40756 53.5692 -123.428
   vertex 0.921723 51.1441 -122.553
   vertex -2.50026 53.9344 -123.648
  endloop
 endfacet
 facet normal 0.114803 -0.237582 -0.96456
  outer loop
   vertex 0.921723 51.1441 -122.553
   vertex 1.36763 50.1212 -122.248
   vertex -2.50026 53.9344 -123.648
  endloop
 endfacet
 facet normal 0.114793 -0.237591 -0.964558
  outer loop
   vertex -2.50026 53.9344 -123.648
   vertex 1.36763 50.1212 -122.248
   vertex -3.59872 54.1908 -123.842
  endloop
 endfacet
 facet normal 0.114796 -0.237588 -0.964559
  outer loop
   vertex -2.61371 40.879 -120.445
   vertex -12.1344 49.0666 -123.595
   vertex -1.6655 41.4465 -120.472
  endloop
 endfacet
 facet normal 0.114793 -0.237593 -0.964558
  outer loop
   vertex -1.6655 41.4465 -120.472
   vertex -12.1344 49.0666 -123.595
   vertex -0.770684 42.0936 -120.525
  endloop
 endfacet
 facet normal 0.114796 -0.237588 -0.964559
  outer loop
   vertex -0.770684 42.0936 -120.525
   vertex -12.1344 49.0666 -123.595
   vertex 0.0159043 42.8713 -120.623
  endloop
 endfacet
 facet normal 0.114794 -0.237591 -0.964558
  outer loop
   vertex 0.0159043 42.8713 -120.623
   vertex -12.1344 49.0666 -123.595
   vertex 0.613641 43.7933 -120.779
  endloop
 endfacet
 facet normal 0.114794 -0.23759 -0.964559
  outer loop
   vertex 0.613641 43.7933 -120.779
   vertex -12.1344 49.0666 -123.595
   vertex 1.04398 44.7895 -120.973
  endloop
 endfacet
 facet normal 0.114794 -0.237591 -0.964558
  outer loop
   vertex 1.04398 44.7895 -120.973
   vertex -12.1344 49.0666 -123.595
   vertex 1.41106 45.8053 -121.18
  endloop
 endfacet
 facet normal 0.114795 -0.237587 -0.964559
  outer loop
   vertex 1.41106 45.8053 -121.18
   vertex -12.1344 49.0666 -123.595
   vertex 1.7355 46.8598 -121.401
  endloop
 endfacet
 facet normal 0.114794 -0.237594 -0.964558
  outer loop
   vertex 1.7355 46.8598 -121.401
   vertex -12.1344 49.0666 -123.595
   vertex 1.87877 47.9679 -121.657
  endloop
 endfacet
 facet normal 0.114795 -0.237588 -0.964559
  outer loop
   vertex 1.87877 47.9679 -121.657
   vertex -12.1344 49.0666 -123.595
   vertex 1.72803 49.0709 -121.946
  endloop
 endfacet
 facet normal 0.114794 -0.237594 -0.964558
  outer loop
   vertex 1.72803 49.0709 -121.946
   vertex -12.1344 49.0666 -123.595
   vertex 1.36763 50.1212 -122.248
  endloop
 endfacet
 facet normal 0.114794 -0.23759 -0.964559
  outer loop
   vertex 1.36763 50.1212 -122.248
   vertex -12.1344 49.0666 -123.595
   vertex -3.59872 54.1908 -123.842
  endloop
 endfacet
 facet normal 0.114794 -0.23759 -0.964559
  outer loop
   vertex -3.59872 54.1908 -123.842
   vertex -12.1344 49.0666 -123.595
   vertex -4.70791 54.3337 -124.009
  endloop
 endfacet
 facet normal 0.114791 -0.237585 -0.96456
  outer loop
   vertex -12.1344 49.0666 -123.595
   vertex -11.7997 50.0639 -123.801
   vertex -4.70791 54.3337 -124.009
  endloop
 endfacet
 facet normal 0.114793 -0.237589 -0.964559
  outer loop
   vertex -11.7997 50.0639 -123.801
   vertex -7.94868 53.6793 -124.233
   vertex -4.70791 54.3337 -124.009
  endloop
 endfacet
 facet normal 0.114793 -0.23759 -0.964559
  outer loop
   vertex -4.70791 54.3337 -124.009
   vertex -7.94868 53.6793 -124.233
   vertex -5.82411 54.273 -124.127
  endloop
 endfacet
 facet normal 0.114818 -0.237683 -0.964533
  outer loop
   vertex -6.90293 54.0061 -124.189
   vertex -5.82411 54.273 -124.127
   vertex -7.94868 53.6793 -124.233
  endloop
 endfacet
endsolid
