solid ascii
 facet normal -0.45252 -0.514365 0.728461
  outer loop
   vertex 11.2268 30.7379 18.1815
   vertex 9.58014 30.4659 16.9665
   vertex 13.0159 30.1507 18.8782
  endloop
 endfacet
 facet normal -0.45252 -0.514363 0.728461
  outer loop
   vertex 9.58014 30.4659 16.9665
   vertex 8.33409 29.4824 15.4979
   vertex 13.0159 30.1507 18.8782
  endloop
 endfacet
 facet normal -0.45252 -0.514362 0.728462
  outer loop
   vertex 13.0159 30.1507 18.8782
   vertex 8.33409 29.4824 15.4979
   vertex 14.7468 29.2658 19.3286
  endloop
 endfacet
 facet normal -0.45252 -0.514363 0.728461
  outer loop
   vertex -0.982127 23.2078 5.28025
   vertex -0.918613 21.3426 4.00274
   vertex -0.213572 24.7364 6.83707
  endloop
 endfacet
 facet normal -0.45252 -0.514363 0.728461
  outer loop
   vertex -0.918613 21.3426 4.00274
   vertex -0.212612 19.4051 3.07324
   vertex -0.213572 24.7364 6.83707
  endloop
 endfacet
 facet normal -0.45252 -0.514363 0.728462
  outer loop
   vertex -0.213572 24.7364 6.83707
   vertex -0.212612 19.4051 3.07324
   vertex 1.03252 25.8477 8.39579
  endloop
 endfacet
 facet normal -0.45252 -0.514363 0.728461
  outer loop
   vertex -0.212612 19.4051 3.07324
   vertex 0.795825 17.5393 2.38227
   vertex 1.03252 25.8477 8.39579
  endloop
 endfacet
 facet normal -0.45252 -0.514363 0.728462
  outer loop
   vertex 8.33409 29.4824 15.4979
   vertex 7.33005 28.5519 14.2173
   vertex 14.7468 29.2658 19.3286
  endloop
 endfacet
 facet normal -0.452521 -0.514363 0.728461
  outer loop
   vertex 1.03252 25.8477 8.39579
   vertex 0.795825 17.5393 2.38227
   vertex 2.3183 26.6958 9.79338
  endloop
 endfacet
 facet normal -0.45252 -0.514363 0.728461
  outer loop
   vertex 0.795825 17.5393 2.38227
   vertex 2.03133 15.791 1.91524
   vertex 2.3183 26.6958 9.79338
  endloop
 endfacet
 facet normal -0.45252 -0.514363 0.728461
  outer loop
   vertex 2.03133 15.791 1.91524
   vertex 3.59913 14.2884 1.82821
   vertex 2.3183 26.6958 9.79338
  endloop
 endfacet
 facet normal -0.45252 -0.514363 0.728461
  outer loop
   vertex 3.59913 14.2884 1.82821
   vertex 5.43202 13.183 2.1863
   vertex 2.3183 26.6958 9.79338
  endloop
 endfacet
 facet normal -0.45252 -0.514363 0.728462
  outer loop
   vertex 5.43202 13.183 2.1863
   vertex 7.2315 12.3732 2.73235
   vertex 2.3183 26.6958 9.79338
  endloop
 endfacet
 facet normal -0.45252 -0.514363 0.728462
  outer loop
   vertex 2.3183 26.6958 9.79338
   vertex 7.2315 12.3732 2.73235
   vertex 3.55444 27.3818 11.0456
  endloop
 endfacet
 facet normal -0.452521 -0.514364 0.728461
  outer loop
   vertex 22.6984 22.9117 19.7815
   vertex 21.679 24.741 20.4399
   vertex 23.1128 21.0276 18.7086
  endloop
 endfacet
 facet normal -0.452521 -0.514364 0.728461
  outer loop
   vertex 21.679 24.741 20.4399
   vertex 20.1666 26.3215 20.6165
   vertex 23.1128 21.0276 18.7086
  endloop
 endfacet
 facet normal -0.45252 -0.514363 0.728462
  outer loop
   vertex 20.1666 26.3215 20.6165
   vertex 18.3738 27.5495 20.3698
   vertex 23.1128 21.0276 18.7086
  endloop
 endfacet
 facet normal -0.45252 -0.514363 0.728461
  outer loop
   vertex 23.1128 21.0276 18.7086
   vertex 18.3738 27.5495 20.3698
   vertex 23.1097 19.2783 17.4715
  endloop
 endfacet
 facet normal -0.45252 -0.514363 0.728461
  outer loop
   vertex 18.3738 27.5495 20.3698
   vertex 16.5184 28.459 19.8595
   vertex 23.1097 19.2783 17.4715
  endloop
 endfacet
 facet normal -0.45252 -0.514363 0.728462
  outer loop
   vertex 23.1097 19.2783 17.4715
   vertex 16.5184 28.459 19.8595
   vertex 22.9751 17.6948 16.2698
  endloop
 endfacet
 facet normal -0.452519 -0.514363 0.728462
  outer loop
   vertex 16.5184 28.459 19.8595
   vertex 14.7468 29.2658 19.3286
   vertex 22.9751 17.6948 16.2698
  endloop
 endfacet
 facet normal -0.45252 -0.514363 0.728461
  outer loop
   vertex 14.7468 29.2658 19.3286
   vertex 7.33005 28.5519 14.2173
   vertex 22.9751 17.6948 16.2698
  endloop
 endfacet
 facet normal -0.45252 -0.514363 0.728461
  outer loop
   vertex 3.55444 27.3818 11.0456
   vertex 7.2315 12.3732 2.73235
   vertex 4.85398 27.8436 12.179
  endloop
 endfacet
 facet normal -0.45252 -0.514363 0.728461
  outer loop
   vertex 7.2315 12.3732 2.73235
   vertex 8.84864 11.5821 3.17833
   vertex 4.85398 27.8436 12.179
  endloop
 endfacet
 facet normal -0.45252 -0.514363 0.728461
  outer loop
   vertex 22.9751 17.6948 16.2698
   vertex 7.33005 28.5519 14.2173
   vertex 22.8237 16.2088 15.1264
  endloop
 endfacet
 facet normal -0.45252 -0.514363 0.728462
  outer loop
   vertex 4.85398 27.8436 12.179
   vertex 8.84864 11.5821 3.17833
   vertex 6.17938 28.1137 13.193
  endloop
 endfacet
 facet normal -0.45252 -0.514363 0.728462
  outer loop
   vertex 22.8237 16.2088 15.1264
   vertex 7.33005 28.5519 14.2173
   vertex 22.6492 14.7561 13.9924
  endloop
 endfacet
 facet normal -0.45252 -0.514363 0.728461
  outer loop
   vertex 8.84864 11.5821 3.17833
   vertex 10.4035 10.7455 3.55342
   vertex 6.17938 28.1137 13.193
  endloop
 endfacet
 facet normal -0.45252 -0.514363 0.728461
  outer loop
   vertex 22.6492 14.7561 13.9924
   vertex 7.33005 28.5519 14.2173
   vertex 22.3633 13.3288 12.8069
  endloop
 endfacet
 facet normal -0.45252 -0.514363 0.728462
  outer loop
   vertex 22.3633 13.3288 12.8069
   vertex 7.33005 28.5519 14.2173
   vertex 21.7968 12.0303 11.5382
  endloop
 endfacet
 facet normal -0.45252 -0.514363 0.728462
  outer loop
   vertex 21.7968 12.0303 11.5382
   vertex 7.33005 28.5519 14.2173
   vertex 20.852 11.0126 10.2326
  endloop
 endfacet
 facet normal -0.45252 -0.514364 0.728461
  outer loop
   vertex 20.852 11.0126 10.2326
   vertex 7.33005 28.5519 14.2173
   vertex 19.6298 10.2967 8.96792
  endloop
 endfacet
 facet normal -0.45252 -0.514363 0.728462
  outer loop
   vertex 19.6298 10.2967 8.96792
   vertex 7.33005 28.5519 14.2173
   vertex 18.2581 9.81856 7.77824
  endloop
 endfacet
 facet normal -0.45252 -0.514363 0.728461
  outer loop
   vertex 18.2581 9.81856 7.77824
   vertex 7.33005 28.5519 14.2173
   vertex 16.7933 9.53916 6.67104
  endloop
 endfacet
 facet normal -0.45252 -0.514363 0.728461
  outer loop
   vertex 16.7933 9.53916 6.67104
   vertex 7.33005 28.5519 14.2173
   vertex 15.2498 9.46652 5.66091
  endloop
 endfacet
 facet normal -0.45252 -0.514363 0.728461
  outer loop
   vertex 15.2498 9.46652 5.66091
   vertex 7.33005 28.5519 14.2173
   vertex 13.645 9.62017 4.77252
  endloop
 endfacet
 facet normal -0.45252 -0.514363 0.728461
  outer loop
   vertex 13.645 9.62017 4.77252
   vertex 7.33005 28.5519 14.2173
   vertex 12.0098 10.0414 4.05417
  endloop
 endfacet
 facet normal -0.45252 -0.514363 0.728461
  outer loop
   vertex 12.0098 10.0414 4.05417
   vertex 7.33005 28.5519 14.2173
   vertex 10.4035 10.7455 3.55342
  endloop
 endfacet
 facet normal -0.45252 -0.514363 0.728461
  outer loop
   vertex 6.17938 28.1137 13.193
   vertex 10.4035 10.7455 3.55342
   vertex 7.33005 28.5519 14.2173
  endloop
 endfacet
endsolid
