solid ascii
 facet normal -0.778056 -0.300879 0.551453
  outer loop
   vertex 16.7477 2.41509 16.377
   vertex 15.8409 3.61506 15.7523
   vertex 17.3838 0.934798 16.4669
  endloop
 endfacet
 facet normal -0.778057 -0.300879 0.551452
  outer loop
   vertex 15.8409 3.61506 15.7523
   vertex 14.7957 4.37961 14.6947
   vertex 17.3838 0.934798 16.4669
  endloop
 endfacet
 facet normal -0.778057 -0.30088 0.551451
  outer loop
   vertex 17.3838 0.934798 16.4669
   vertex 14.7957 4.37961 14.6947
   vertex 17.7589 -0.602442 16.1574
  endloop
 endfacet
 facet normal -0.778057 -0.30088 0.551451
  outer loop
   vertex 14.7957 4.37961 14.6947
   vertex 13.8035 4.8175 13.5337
   vertex 17.7589 -0.602442 16.1574
  endloop
 endfacet
 facet normal -0.778057 -0.30088 0.551452
  outer loop
   vertex 17.7589 -0.602442 16.1574
   vertex 13.8035 4.8175 13.5337
   vertex 17.9401 -2.06902 15.6128
  endloop
 endfacet
 facet normal -0.778056 -0.300879 0.551452
  outer loop
   vertex 17.9401 -2.06902 15.6128
   vertex 13.8035 4.8175 13.5337
   vertex 18.0145 -3.4348 14.9725
  endloop
 endfacet
 facet normal -0.778057 -0.30088 0.551452
  outer loop
   vertex 13.8035 4.8175 13.5337
   vertex 12.9369 5.17152 12.5042
   vertex 18.0145 -3.4348 14.9725
  endloop
 endfacet
 facet normal -0.778057 -0.30088 0.551452
  outer loop
   vertex 9.61268 7.20684 8.92445
   vertex 8.84047 7.08197 7.76679
   vertex 10.49 6.84717 9.96608
  endloop
 endfacet
 facet normal -0.778057 -0.300879 0.551452
  outer loop
   vertex 8.84047 7.08197 7.76679
   vertex 8.1998 6.62543 6.61376
   vertex 10.49 6.84717 9.96608
  endloop
 endfacet
 facet normal -0.778057 -0.30088 0.551452
  outer loop
   vertex 10.49 6.84717 9.96608
   vertex 8.1998 6.62543 6.61376
   vertex 11.3525 6.20276 10.8313
  endloop
 endfacet
 facet normal -0.778057 -0.30088 0.551452
  outer loop
   vertex 8.1998 6.62543 6.61376
   vertex 7.64277 6.02563 5.50057
   vertex 11.3525 6.20276 10.8313
  endloop
 endfacet
 facet normal -0.778057 -0.30088 0.551452
  outer loop
   vertex 18.0145 -3.4348 14.9725
   vertex 12.9369 5.17152 12.5042
   vertex 18.0653 -4.74528 14.3292
  endloop
 endfacet
 facet normal -0.778057 -0.30088 0.551452
  outer loop
   vertex 18.0653 -4.74528 14.3292
   vertex 12.9369 5.17152 12.5042
   vertex 18.0379 -6.00589 13.6028
  endloop
 endfacet
 facet normal -0.778057 -0.30088 0.551451
  outer loop
   vertex 18.0379 -6.00589 13.6028
   vertex 12.9369 5.17152 12.5042
   vertex 17.8097 -7.10544 12.6808
  endloop
 endfacet
 facet normal -0.778056 -0.30088 0.551452
  outer loop
   vertex 17.8097 -7.10544 12.6808
   vertex 12.9369 5.17152 12.5042
   vertex 17.3647 -7.94779 11.5934
  endloop
 endfacet
 facet normal -0.778057 -0.30088 0.551451
  outer loop
   vertex 17.3647 -7.94779 11.5934
   vertex 12.9369 5.17152 12.5042
   vertex 16.8241 -8.60715 10.4708
  endloop
 endfacet
 facet normal -0.778057 -0.30088 0.551451
  outer loop
   vertex 16.8241 -8.60715 10.4708
   vertex 12.9369 5.17152 12.5042
   vertex 16.2699 -9.20379 9.36338
  endloop
 endfacet
 facet normal -0.778057 -0.30088 0.551452
  outer loop
   vertex 16.2699 -9.20379 9.36338
   vertex 12.9369 5.17152 12.5042
   vertex 15.6592 -9.69263 8.23503
  endloop
 endfacet
 facet normal -0.778057 -0.30088 0.551452
  outer loop
   vertex 15.6592 -9.69263 8.23503
   vertex 12.9369 5.17152 12.5042
   vertex 14.9462 -9.95077 7.08826
  endloop
 endfacet
 facet normal -0.778057 -0.30088 0.551451
  outer loop
   vertex 14.9462 -9.95077 7.08826
   vertex 12.9369 5.17152 12.5042
   vertex 14.1621 -9.98576 5.96278
  endloop
 endfacet
 facet normal -0.778057 -0.30088 0.551452
  outer loop
   vertex 14.1621 -9.98576 5.96278
   vertex 12.9369 5.17152 12.5042
   vertex 13.3533 -9.94304 4.845
  endloop
 endfacet
 facet normal -0.778057 -0.300879 0.551452
  outer loop
   vertex 11.3525 6.20276 10.8313
   vertex 7.64277 6.02563 5.50057
   vertex 12.1482 5.60132 11.6259
  endloop
 endfacet
 facet normal -0.778057 -0.30088 0.551452
  outer loop
   vertex 7.64277 6.02563 5.50057
   vertex 7.13206 5.34677 4.4096
   vertex 12.1482 5.60132 11.6259
  endloop
 endfacet
 facet normal -0.778057 -0.30088 0.551452
  outer loop
   vertex 13.3533 -9.94304 4.845
   vertex 12.9369 5.17152 12.5042
   vertex 12.5056 -9.87829 3.68429
  endloop
 endfacet
 facet normal -0.778057 -0.30088 0.551452
  outer loop
   vertex 12.5056 -9.87829 3.68429
   vertex 12.9369 5.17152 12.5042
   vertex 11.5898 -9.60873 2.53921
  endloop
 endfacet
 facet normal -0.778057 -0.30088 0.551452
  outer loop
   vertex 11.5898 -9.60873 2.53921
   vertex 12.9369 5.17152 12.5042
   vertex 10.6498 -8.97061 1.56111
  endloop
 endfacet
 facet normal -0.778057 -0.30088 0.551452
  outer loop
   vertex 10.6498 -8.97061 1.56111
   vertex 12.9369 5.17152 12.5042
   vertex 9.75407 -8.02343 0.814086
  endloop
 endfacet
 facet normal -0.778057 -0.30088 0.551452
  outer loop
   vertex 9.75407 -8.02343 0.814086
   vertex 12.9369 5.17152 12.5042
   vertex 8.922 -6.91224 0.246379
  endloop
 endfacet
 facet normal -0.778057 -0.30088 0.551451
  outer loop
   vertex 8.922 -6.91224 0.246379
   vertex 12.9369 5.17152 12.5042
   vertex 8.14823 -5.70319 -0.185668
  endloop
 endfacet
 facet normal -0.778057 -0.30088 0.551452
  outer loop
   vertex 8.14823 -5.70319 -0.185668
   vertex 12.9369 5.17152 12.5042
   vertex 7.45725 -4.39304 -0.445758
  endloop
 endfacet
 facet normal -0.778057 -0.30088 0.551452
  outer loop
   vertex 7.45725 -4.39304 -0.445758
   vertex 12.9369 5.17152 12.5042
   vertex 6.88439 -2.99994 -0.493923
  endloop
 endfacet
 facet normal -0.778057 -0.30088 0.551452
  outer loop
   vertex 6.88439 -2.99994 -0.493923
   vertex 12.9369 5.17152 12.5042
   vertex 6.43948 -1.56756 -0.340129
  endloop
 endfacet
 facet normal -0.778057 -0.30088 0.551452
  outer loop
   vertex 6.43948 -1.56756 -0.340129
   vertex 12.9369 5.17152 12.5042
   vertex 6.11534 -0.130233 -0.0132405
  endloop
 endfacet
 facet normal -0.778057 -0.30088 0.551452
  outer loop
   vertex 6.11534 -0.130233 -0.0132405
   vertex 12.9369 5.17152 12.5042
   vertex 5.93614 1.27898 0.502803
  endloop
 endfacet
 facet normal -0.778057 -0.30088 0.551452
  outer loop
   vertex 5.93614 1.27898 0.502803
   vertex 12.9369 5.17152 12.5042
   vertex 5.96564 2.58452 1.25674
  endloop
 endfacet
 facet normal -0.778057 -0.30088 0.551452
  outer loop
   vertex 5.96564 2.58452 1.25674
   vertex 12.9369 5.17152 12.5042
   vertex 6.23198 3.6889 2.23509
  endloop
 endfacet
 facet normal -0.778057 -0.30088 0.551452
  outer loop
   vertex 7.13206 5.34677 4.4096
   vertex 6.65254 4.58524 3.31753
   vertex 12.1482 5.60132 11.6259
  endloop
 endfacet
 facet normal -0.778057 -0.30088 0.551452
  outer loop
   vertex 6.65254 4.58524 3.31753
   vertex 6.23198 3.6889 2.23509
   vertex 12.1482 5.60132 11.6259
  endloop
 endfacet
 facet normal -0.778057 -0.300879 0.551452
  outer loop
   vertex 12.9369 5.17152 12.5042
   vertex 12.1482 5.60132 11.6259
   vertex 6.23198 3.6889 2.23509
  endloop
 endfacet
endsolid
