solid ascii
 facet normal -0.18677 -0.383632 -0.904402
  outer loop
   vertex -5.74043 31.6109 -114.822
   vertex -6.97759 30.9813 -114.299
   vertex -4.79438 32.5794 -115.428
  endloop
 endfacet
 facet normal -0.186774 -0.383627 -0.904403
  outer loop
   vertex -6.97759 30.9813 -114.299
   vertex -8.38119 30.7217 -113.899
   vertex -4.79438 32.5794 -115.428
  endloop
 endfacet
 facet normal -0.186775 -0.383626 -0.904404
  outer loop
   vertex -8.38119 30.7217 -113.899
   vertex -9.81619 30.7366 -113.609
   vertex -4.79438 32.5794 -115.428
  endloop
 endfacet
 facet normal -0.186772 -0.383632 -0.904402
  outer loop
   vertex -4.79438 32.5794 -115.428
   vertex -9.81619 30.7366 -113.609
   vertex -4.07245 33.6687 -116.039
  endloop
 endfacet
 facet normal -0.18677 -0.383635 -0.904401
  outer loop
   vertex -9.81619 30.7366 -113.609
   vertex -11.2186 30.9284 -113.401
   vertex -4.07245 33.6687 -116.039
  endloop
 endfacet
 facet normal -0.186775 -0.383626 -0.904404
  outer loop
   vertex -11.2186 30.9284 -113.401
   vertex -12.5798 31.2285 -113.247
   vertex -4.07245 33.6687 -116.039
  endloop
 endfacet
 facet normal -0.186774 -0.383628 -0.904403
  outer loop
   vertex -4.07245 33.6687 -116.039
   vertex -12.5798 31.2285 -113.247
   vertex -3.40137 34.7256 -116.626
  endloop
 endfacet
 facet normal -0.186786 -0.383634 -0.904398
  outer loop
   vertex -1.86532 39.5117 -118.973
   vertex -1.86253 38.1903 -118.414
   vertex -2.26264 40.8073 -119.441
  endloop
 endfacet
 facet normal -0.186762 -0.383633 -0.904403
  outer loop
   vertex -1.86253 38.1903 -118.414
   vertex -2.19417 36.9362 -117.813
   vertex -2.26264 40.8073 -119.441
  endloop
 endfacet
 facet normal -0.186781 -0.383632 -0.9044
  outer loop
   vertex -2.26264 40.8073 -119.441
   vertex -2.19417 36.9362 -117.813
   vertex -2.92006 42.0023 -119.812
  endloop
 endfacet
 facet normal -0.186769 -0.383631 -0.904403
  outer loop
   vertex -2.19417 36.9362 -117.813
   vertex -2.74563 35.7888 -117.212
   vertex -2.92006 42.0023 -119.812
  endloop
 endfacet
 facet normal -0.186774 -0.383631 -0.904402
  outer loop
   vertex -2.92006 42.0023 -119.812
   vertex -2.74563 35.7888 -117.212
   vertex -3.66639 43.1097 -120.128
  endloop
 endfacet
 facet normal -0.186779 -0.383631 -0.904401
  outer loop
   vertex -2.74563 35.7888 -117.212
   vertex -3.40137 34.7256 -116.626
   vertex -3.66639 43.1097 -120.128
  endloop
 endfacet
 facet normal -0.186772 -0.383631 -0.904402
  outer loop
   vertex -3.40137 34.7256 -116.626
   vertex -12.5798 31.2285 -113.247
   vertex -3.66639 43.1097 -120.128
  endloop
 endfacet
 facet normal -0.186771 -0.383632 -0.904402
  outer loop
   vertex -12.5798 31.2285 -113.247
   vertex -13.9192 31.6092 -113.132
   vertex -3.66639 43.1097 -120.128
  endloop
 endfacet
 facet normal -0.186772 -0.383631 -0.904402
  outer loop
   vertex -13.9192 31.6092 -113.132
   vertex -15.2122 32.16 -113.099
   vertex -3.66639 43.1097 -120.128
  endloop
 endfacet
 facet normal -0.186771 -0.383633 -0.904402
  outer loop
   vertex -15.2122 32.16 -113.099
   vertex -16.3622 32.9631 -113.202
   vertex -3.66639 43.1097 -120.128
  endloop
 endfacet
 facet normal -0.186774 -0.383629 -0.904403
  outer loop
   vertex -16.3622 32.9631 -113.202
   vertex -17.3041 33.9707 -113.435
   vertex -3.66639 43.1097 -120.128
  endloop
 endfacet
 facet normal -0.18677 -0.383634 -0.904401
  outer loop
   vertex -17.3041 33.9707 -113.435
   vertex -18.0667 35.0734 -113.745
   vertex -3.66639 43.1097 -120.128
  endloop
 endfacet
 facet normal -0.186775 -0.383627 -0.904403
  outer loop
   vertex -18.0667 35.0734 -113.745
   vertex -18.7065 36.2125 -114.096
   vertex -3.66639 43.1097 -120.128
  endloop
 endfacet
 facet normal -0.186771 -0.383634 -0.904401
  outer loop
   vertex -3.66639 43.1097 -120.128
   vertex -18.7065 36.2125 -114.096
   vertex -4.45804 44.168 -120.413
  endloop
 endfacet
 facet normal -0.186774 -0.383629 -0.904403
  outer loop
   vertex -4.45804 44.168 -120.413
   vertex -18.7065 36.2125 -114.096
   vertex -5.34564 45.1695 -120.655
  endloop
 endfacet
 facet normal -0.186772 -0.383632 -0.904402
  outer loop
   vertex -5.34564 45.1695 -120.655
   vertex -18.7065 36.2125 -114.096
   vertex -6.36399 46.0808 -120.831
  endloop
 endfacet
 facet normal -0.18677 -0.383633 -0.904402
  outer loop
   vertex -6.36399 46.0808 -120.831
   vertex -18.7065 36.2125 -114.096
   vertex -7.51834 46.8639 -120.925
  endloop
 endfacet
 facet normal -0.186774 -0.38363 -0.904402
  outer loop
   vertex -7.51834 46.8639 -120.925
   vertex -18.7065 36.2125 -114.096
   vertex -8.79484 47.4759 -120.921
  endloop
 endfacet
 facet normal -0.186772 -0.383632 -0.904402
  outer loop
   vertex -8.79484 47.4759 -120.921
   vertex -18.7065 36.2125 -114.096
   vertex -10.1608 47.8808 -120.81
  endloop
 endfacet
 facet normal -0.18677 -0.383633 -0.904402
  outer loop
   vertex -10.1608 47.8808 -120.81
   vertex -18.7065 36.2125 -114.096
   vertex -11.5708 48.0525 -120.592
  endloop
 endfacet
 facet normal -0.186775 -0.38363 -0.904402
  outer loop
   vertex -11.5708 48.0525 -120.592
   vertex -18.7065 36.2125 -114.096
   vertex -12.9746 47.9884 -120.275
  endloop
 endfacet
 facet normal -0.186771 -0.383632 -0.904402
  outer loop
   vertex -12.9746 47.9884 -120.275
   vertex -18.7065 36.2125 -114.096
   vertex -14.3353 47.7205 -119.88
  endloop
 endfacet
 facet normal -0.18677 -0.383633 -0.904402
  outer loop
   vertex -14.3353 47.7205 -119.88
   vertex -18.7065 36.2125 -114.096
   vertex -15.6334 47.2776 -119.424
  endloop
 endfacet
 facet normal -0.186774 -0.383631 -0.904402
  outer loop
   vertex -15.6334 47.2776 -119.424
   vertex -18.7065 36.2125 -114.096
   vertex -16.8323 46.6448 -118.908
  endloop
 endfacet
 facet normal -0.186769 -0.383632 -0.904402
  outer loop
   vertex -16.8323 46.6448 -118.908
   vertex -18.7065 36.2125 -114.096
   vertex -17.8712 45.8064 -118.338
  endloop
 endfacet
 facet normal -0.186772 -0.383632 -0.904402
  outer loop
   vertex -17.8712 45.8064 -118.338
   vertex -18.7065 36.2125 -114.096
   vertex -18.7089 44.7917 -117.735
  endloop
 endfacet
 facet normal -0.186769 -0.383632 -0.904402
  outer loop
   vertex -18.7089 44.7917 -117.735
   vertex -18.7065 36.2125 -114.096
   vertex -19.3494 43.6592 -117.122
  endloop
 endfacet
 facet normal -0.186781 -0.383632 -0.9044
  outer loop
   vertex -19.3494 43.6592 -117.122
   vertex -18.7065 36.2125 -114.096
   vertex -19.8012 42.4479 -116.515
  endloop
 endfacet
 facet normal -0.186772 -0.383631 -0.904402
  outer loop
   vertex -19.8012 42.4479 -116.515
   vertex -18.7065 36.2125 -114.096
   vertex -20.0247 41.1744 -115.929
  endloop
 endfacet
 facet normal -0.186767 -0.383631 -0.904403
  outer loop
   vertex -20.0247 41.1744 -115.929
   vertex -18.7065 36.2125 -114.096
   vertex -19.9753 39.8749 -115.388
  endloop
 endfacet
 facet normal -0.18678 -0.383634 -0.904399
  outer loop
   vertex -19.9753 39.8749 -115.388
   vertex -18.7065 36.2125 -114.096
   vertex -19.6866 38.6033 -114.908
  endloop
 endfacet
 facet normal -0.186753 -0.383626 -0.904409
  outer loop
   vertex -19.6866 38.6033 -114.908
   vertex -18.7065 36.2125 -114.096
   vertex -19.2452 37.3856 -114.482
  endloop
 endfacet
endsolid
