solid ascii
 facet normal -0.783565 -0.0282672 0.620666
  outer loop
   vertex 6.54795 -0.0910693 2.79112
   vertex 5.60244 -0.925871 1.55943
   vertex 7.66279 -0.00887089 4.20229
  endloop
 endfacet
 facet normal -0.783565 -0.0282666 0.620666
  outer loop
   vertex 7.66279 -0.00887089 4.20229
   vertex 5.60244 -0.925871 1.55943
   vertex 8.74888 -0.426556 5.55442
  endloop
 endfacet
 facet normal -0.783565 -0.0282667 0.620666
  outer loop
   vertex 5.60244 -0.925871 1.55943
   vertex 4.82703 -2.11849 0.526182
   vertex 8.74888 -0.426556 5.55442
  endloop
 endfacet
 facet normal -0.783565 -0.0282667 0.620666
  outer loop
   vertex 4.82703 -2.11849 0.526182
   vertex 4.0799 -3.33253 -0.472324
   vertex 8.74888 -0.426556 5.55442
  endloop
 endfacet
 facet normal -0.783565 -0.0282668 0.620666
  outer loop
   vertex 2.21622 -13.3886 -3.28312
   vertex 2.76168 -15.104 -2.67263
   vertex 2.02826 -11.5049 -3.43463
  endloop
 endfacet
 facet normal -0.783565 -0.0282667 0.620666
  outer loop
   vertex 2.76168 -15.104 -2.67263
   vertex 3.56952 -16.5202 -1.71726
   vertex 2.02826 -11.5049 -3.43463
  endloop
 endfacet
 facet normal -0.783565 -0.0282668 0.620666
  outer loop
   vertex 2.02826 -11.5049 -3.43463
   vertex 3.56952 -16.5202 -1.71726
   vertex 2.09659 -9.62427 -3.26271
  endloop
 endfacet
 facet normal -0.783565 -0.0282667 0.620666
  outer loop
   vertex 2.09659 -9.62427 -3.26271
   vertex 3.56952 -16.5202 -1.71726
   vertex 2.32468 -7.81196 -2.89222
  endloop
 endfacet
 facet normal -0.783565 -0.0282667 0.620666
  outer loop
   vertex 3.56952 -16.5202 -1.71726
   vertex 4.41558 -17.7386 -0.704633
   vertex 2.32468 -7.81196 -2.89222
  endloop
 endfacet
 facet normal -0.783565 -0.0282668 0.620666
  outer loop
   vertex 2.32468 -7.81196 -2.89222
   vertex 4.41558 -17.7386 -0.704633
   vertex 2.7319 -6.11535 -2.30085
  endloop
 endfacet
 facet normal -0.783565 -0.0282668 0.620666
  outer loop
   vertex 2.7319 -6.11535 -2.30085
   vertex 4.41558 -17.7386 -0.704633
   vertex 3.34356 -4.61975 -1.46055
  endloop
 endfacet
 facet normal -0.783565 -0.0282668 0.620666
  outer loop
   vertex 3.34356 -4.61975 -1.46055
   vertex 4.41558 -17.7386 -0.704633
   vertex 4.0799 -3.33253 -0.472324
  endloop
 endfacet
 facet normal -0.783565 -0.0282668 0.620666
  outer loop
   vertex 4.0799 -3.33253 -0.472324
   vertex 4.41558 -17.7386 -0.704633
   vertex 8.74888 -0.426556 5.55442
  endloop
 endfacet
 facet normal -0.783565 -0.0282667 0.620666
  outer loop
   vertex 4.41558 -17.7386 -0.704633
   vertex 5.20653 -18.9406 0.239161
   vertex 8.74888 -0.426556 5.55442
  endloop
 endfacet
 facet normal -0.783565 -0.0282668 0.620666
  outer loop
   vertex 8.74888 -0.426556 5.55442
   vertex 5.20653 -18.9406 0.239161
   vertex 9.72051 -0.738485 6.76685
  endloop
 endfacet
 facet normal -0.783565 -0.0282668 0.620666
  outer loop
   vertex 5.20653 -18.9406 0.239161
   vertex 6.05241 -20.0412 1.25693
   vertex 9.72051 -0.738485 6.76685
  endloop
 endfacet
 facet normal -0.783565 -0.0282667 0.620666
  outer loop
   vertex 6.05241 -20.0412 1.25693
   vertex 7.0217 -20.8246 2.44494
   vertex 9.72051 -0.738485 6.76685
  endloop
 endfacet
 facet normal -0.783565 -0.0282668 0.620666
  outer loop
   vertex 7.0217 -20.8246 2.44494
   vertex 8.05929 -21.2614 3.73496
   vertex 9.72051 -0.738485 6.76685
  endloop
 endfacet
 facet normal -0.783565 -0.0282667 0.620666
  outer loop
   vertex 8.05929 -21.2614 3.73496
   vertex 9.1028 -21.4925 5.04182
   vertex 9.72051 -0.738485 6.76685
  endloop
 endfacet
 facet normal -0.783565 -0.0282668 0.620666
  outer loop
   vertex 9.1028 -21.4925 5.04182
   vertex 10.1465 -21.596 6.35469
   vertex 9.72051 -0.738485 6.76685
  endloop
 endfacet
 facet normal -0.783565 -0.0282668 0.620666
  outer loop
   vertex 10.1465 -21.596 6.35469
   vertex 11.1919 -21.4918 7.67931
   vertex 9.72051 -0.738485 6.76685
  endloop
 endfacet
 facet normal -0.783565 -0.0282667 0.620666
  outer loop
   vertex 11.1919 -21.4918 7.67931
   vertex 12.2108 -21.1022 8.98331
   vertex 9.72051 -0.738485 6.76685
  endloop
 endfacet
 facet normal -0.783565 -0.0282668 0.620666
  outer loop
   vertex 12.2108 -21.1022 8.98331
   vertex 13.1786 -20.4579 10.2345
   vertex 9.72051 -0.738485 6.76685
  endloop
 endfacet
 facet normal -0.783565 -0.0282667 0.620666
  outer loop
   vertex 13.1786 -20.4579 10.2345
   vertex 14.0935 -19.6181 11.4278
   vertex 9.72051 -0.738485 6.76685
  endloop
 endfacet
 facet normal -0.783565 -0.0282669 0.620666
  outer loop
   vertex 14.0935 -19.6181 11.4278
   vertex 14.9479 -18.5902 12.5532
   vertex 9.72051 -0.738485 6.76685
  endloop
 endfacet
 facet normal -0.783565 -0.0282667 0.620666
  outer loop
   vertex 14.9479 -18.5902 12.5532
   vertex 15.7062 -17.3467 13.5671
   vertex 9.72051 -0.738485 6.76685
  endloop
 endfacet
 facet normal -0.783565 -0.0282669 0.620666
  outer loop
   vertex 15.7062 -17.3467 13.5671
   vertex 16.3239 -15.8876 14.4135
   vertex 9.72051 -0.738485 6.76685
  endloop
 endfacet
 facet normal -0.783565 -0.0282667 0.620666
  outer loop
   vertex 16.3239 -15.8876 14.4135
   vertex 16.7659 -14.249 15.0461
   vertex 9.72051 -0.738485 6.76685
  endloop
 endfacet
 facet normal -0.783565 -0.0282665 0.620666
  outer loop
   vertex 16.7659 -14.249 15.0461
   vertex 17.0061 -12.4879 15.4295
   vertex 9.72051 -0.738485 6.76685
  endloop
 endfacet
 facet normal -0.783566 -0.0282673 0.620666
  outer loop
   vertex 17.0061 -12.4879 15.4295
   vertex 17.0573 -10.6745 15.5768
   vertex 9.72051 -0.738485 6.76685
  endloop
 endfacet
 facet normal -0.783565 -0.0282668 0.620666
  outer loop
   vertex 17.0573 -10.6745 15.5768
   vertex 16.9612 -8.85379 15.5384
   vertex 9.72051 -0.738485 6.76685
  endloop
 endfacet
 facet normal -0.783565 -0.0282659 0.620667
  outer loop
   vertex 16.9612 -8.85379 15.5384
   vertex 16.7273 -7.04452 15.3254
   vertex 9.72051 -0.738485 6.76685
  endloop
 endfacet
 facet normal -0.783565 -0.0282667 0.620666
  outer loop
   vertex 16.7273 -7.04452 15.3254
   vertex 16.3024 -5.30536 14.8683
   vertex 9.72051 -0.738485 6.76685
  endloop
 endfacet
 facet normal -0.783565 -0.0282674 0.620666
  outer loop
   vertex 16.3024 -5.30536 14.8683
   vertex 15.6517 -3.74742 14.1177
   vertex 9.72051 -0.738485 6.76685
  endloop
 endfacet
 facet normal -0.783565 -0.0282669 0.620666
  outer loop
   vertex 15.6517 -3.74742 14.1177
   vertex 14.8064 -2.46542 13.1089
   vertex 9.72051 -0.738485 6.76685
  endloop
 endfacet
 facet normal -0.783565 -0.0282666 0.620666
  outer loop
   vertex 14.8064 -2.46542 13.1089
   vertex 13.8255 -1.51593 11.9139
   vertex 9.72051 -0.738485 6.76685
  endloop
 endfacet
 facet normal -0.783565 -0.0282673 0.620666
  outer loop
   vertex 13.8255 -1.51593 11.9139
   vertex 12.7715 -0.924543 10.6101
   vertex 9.72051 -0.738485 6.76685
  endloop
 endfacet
 facet normal -0.783565 -0.0282638 0.620666
  outer loop
   vertex 11.7038 -0.6857 9.27308
   vertex 10.6782 -0.721414 7.97665
   vertex 12.7715 -0.924543 10.6101
  endloop
 endfacet
 facet normal -0.783565 -0.0282711 0.620666
  outer loop
   vertex 9.72051 -0.738485 6.76685
   vertex 12.7715 -0.924543 10.6101
   vertex 10.6782 -0.721414 7.97665
  endloop
 endfacet
endsolid
