solid ascii
 facet normal -0.7432 -0.277608 0.608759
  outer loop
   vertex 18.8583 16.8356 18.4763
   vertex 17.591 16.6772 16.8568
   vertex 20.1471 15.8119 19.5828
  endloop
 endfacet
 facet normal -0.7432 -0.277608 0.608759
  outer loop
   vertex 17.591 16.6772 16.8568
   vertex 16.6356 15.4673 15.1387
   vertex 20.1471 15.8119 19.5828
  endloop
 endfacet
 facet normal -0.7432 -0.277607 0.608759
  outer loop
   vertex 20.1471 15.8119 19.5828
   vertex 16.6356 15.4673 15.1387
   vertex 21.3511 14.5932 20.4969
  endloop
 endfacet
 facet normal -0.743201 -0.277608 0.608759
  outer loop
   vertex 9.10108 6.40335 1.80684
   vertex 9.89118 4.28831 1.80692
   vertex 9.02381 8.46567 2.65296
  endloop
 endfacet
 facet normal -0.7432 -0.277608 0.608759
  outer loop
   vertex 9.89118 4.28831 1.80692
   vertex 11.1796 2.47018 2.55077
   vertex 9.02381 8.46567 2.65296
  endloop
 endfacet
 facet normal -0.7432 -0.277608 0.608759
  outer loop
   vertex 9.02381 8.46567 2.65296
   vertex 11.1796 2.47018 2.55077
   vertex 9.4641 10.2207 3.99082
  endloop
 endfacet
 facet normal -0.7432 -0.277608 0.608759
  outer loop
   vertex 9.4641 10.2207 3.99082
   vertex 11.1796 2.47018 2.55077
   vertex 10.1825 11.6173 5.50473
  endloop
 endfacet
 facet normal -0.7432 -0.277608 0.608759
  outer loop
   vertex 11.1796 2.47018 2.55077
   vertex 12.4777 1.00305 3.46652
   vertex 10.1825 11.6173 5.50473
  endloop
 endfacet
 facet normal -0.7432 -0.277608 0.608759
  outer loop
   vertex 16.6356 15.4673 15.1387
   vertex 15.8981 14.414 13.758
   vertex 21.3511 14.5932 20.4969
  endloop
 endfacet
 facet normal -0.7432 -0.277608 0.608759
  outer loop
   vertex 10.1825 11.6173 5.50473
   vertex 12.4777 1.00305 3.46652
   vertex 11.0308 12.6964 7.03252
  endloop
 endfacet
 facet normal -0.7432 -0.277608 0.608759
  outer loop
   vertex 25.4773 11.1418 23.9605
   vertex 24.1806 12.7184 23.0964
   vertex 26.3159 9.11446 24.0598
  endloop
 endfacet
 facet normal -0.7432 -0.277607 0.608759
  outer loop
   vertex 26.3159 9.11446 24.0598
   vertex 24.1806 12.7184 23.0964
   vertex 26.6447 6.9811 23.4883
  endloop
 endfacet
 facet normal -0.7432 -0.277607 0.608759
  outer loop
   vertex 24.1806 12.7184 23.0964
   vertex 22.6969 13.7261 21.7445
   vertex 26.6447 6.9811 23.4883
  endloop
 endfacet
 facet normal -0.7432 -0.277608 0.608759
  outer loop
   vertex 26.6447 6.9811 23.4883
   vertex 22.6969 13.7261 21.7445
   vertex 26.5478 5.01437 22.4731
  endloop
 endfacet
 facet normal -0.7432 -0.277607 0.608759
  outer loop
   vertex 26.5478 5.01437 22.4731
   vertex 22.6969 13.7261 21.7445
   vertex 26.2982 3.3155 21.3937
  endloop
 endfacet
 facet normal -0.7432 -0.277608 0.608759
  outer loop
   vertex 22.6969 13.7261 21.7445
   vertex 21.3511 14.5932 20.4969
   vertex 26.2982 3.3155 21.3937
  endloop
 endfacet
 facet normal -0.7432 -0.277608 0.608759
  outer loop
   vertex 21.3511 14.5932 20.4969
   vertex 15.8981 14.414 13.758
   vertex 26.2982 3.3155 21.3937
  endloop
 endfacet
 facet normal -0.7432 -0.277608 0.608759
  outer loop
   vertex 11.0308 12.6964 7.03252
   vertex 12.4777 1.00305 3.46652
   vertex 11.9053 13.5536 8.49104
  endloop
 endfacet
 facet normal -0.7432 -0.277608 0.608759
  outer loop
   vertex 12.4777 1.00305 3.46652
   vertex 13.5289 -0.365315 4.12589
   vertex 11.9053 13.5536 8.49104
  endloop
 endfacet
 facet normal -0.7432 -0.277608 0.608759
  outer loop
   vertex 11.9053 13.5536 8.49104
   vertex 13.5289 -0.365315 4.12589
   vertex 12.835 14.1704 9.9073
  endloop
 endfacet
 facet normal -0.7432 -0.277607 0.608759
  outer loop
   vertex 12.835 14.1704 9.9073
   vertex 13.5289 -0.365315 4.12589
   vertex 13.897 14.3804 11.2997
  endloop
 endfacet
 facet normal -0.7432 -0.277608 0.608759
  outer loop
   vertex 13.897 14.3804 11.2997
   vertex 13.5289 -0.365315 4.12589
   vertex 14.9976 14.243 12.5806
  endloop
 endfacet
 facet normal -0.7432 -0.277608 0.608759
  outer loop
   vertex 26.2982 3.3155 21.3937
   vertex 15.8981 14.414 13.758
   vertex 26.1908 1.74399 20.5459
  endloop
 endfacet
 facet normal -0.7432 -0.277607 0.608759
  outer loop
   vertex 17.7142 -5.62707 6.83602
   vertex 18.9747 -6.07255 8.17166
   vertex 16.4883 -4.6444 5.78744
  endloop
 endfacet
 facet normal -0.7432 -0.277609 0.608758
  outer loop
   vertex 16.4883 -4.6444 5.78744
   vertex 18.9747 -6.07255 8.17166
   vertex 15.4048 -3.26664 5.09293
  endloop
 endfacet
 facet normal -0.7432 -0.277609 0.608758
  outer loop
   vertex 18.9747 -6.07255 8.17166
   vertex 20.1857 -6.24913 9.56963
   vertex 15.4048 -3.26664 5.09293
  endloop
 endfacet
 facet normal -0.7432 -0.277607 0.608759
  outer loop
   vertex 15.4048 -3.26664 5.09293
   vertex 20.1857 -6.24913 9.56963
   vertex 14.454 -1.78721 4.60687
  endloop
 endfacet
 facet normal -0.7432 -0.277608 0.608759
  outer loop
   vertex 23.6005 -5.92406 13.8868
   vertex 24.3472 -4.89489 15.2677
   vertex 22.5797 -6.44639 12.4024
  endloop
 endfacet
 facet normal -0.743201 -0.277606 0.608759
  outer loop
   vertex 22.5797 -6.44639 12.4024
   vertex 24.3472 -4.89489 15.2677
   vertex 21.3899 -6.4392 10.9531
  endloop
 endfacet
 facet normal -0.743201 -0.277606 0.608759
  outer loop
   vertex 24.3472 -4.89489 15.2677
   vertex 24.9301 -3.71296 16.5183
   vertex 21.3899 -6.4392 10.9531
  endloop
 endfacet
 facet normal -0.7432 -0.277608 0.608759
  outer loop
   vertex 21.3899 -6.4392 10.9531
   vertex 24.9301 -3.71296 16.5183
   vertex 20.1857 -6.24913 9.56963
  endloop
 endfacet
 facet normal -0.7432 -0.277607 0.608759
  outer loop
   vertex 20.1857 -6.24913 9.56963
   vertex 24.9301 -3.71296 16.5183
   vertex 14.454 -1.78721 4.60687
  endloop
 endfacet
 facet normal -0.7432 -0.277608 0.608759
  outer loop
   vertex 13.5289 -0.365315 4.12589
   vertex 14.454 -1.78721 4.60687
   vertex 14.9976 14.243 12.5806
  endloop
 endfacet
 facet normal -0.7432 -0.277608 0.608759
  outer loop
   vertex 14.454 -1.78721 4.60687
   vertex 24.9301 -3.71296 16.5183
   vertex 14.9976 14.243 12.5806
  endloop
 endfacet
 facet normal -0.7432 -0.277608 0.608759
  outer loop
   vertex 24.9301 -3.71296 16.5183
   vertex 25.4935 -2.56791 17.7284
   vertex 14.9976 14.243 12.5806
  endloop
 endfacet
 facet normal -0.7432 -0.277608 0.608759
  outer loop
   vertex 25.4935 -2.56791 17.7284
   vertex 25.9558 -1.30952 18.8666
   vertex 14.9976 14.243 12.5806
  endloop
 endfacet
 facet normal -0.7432 -0.277607 0.60876
  outer loop
   vertex 26.1908 1.74399 20.5459
   vertex 15.8981 14.414 13.758
   vertex 26.1617 0.169894 19.7926
  endloop
 endfacet
 facet normal -0.7432 -0.277608 0.608759
  outer loop
   vertex 26.1617 0.169894 19.7926
   vertex 15.8981 14.414 13.758
   vertex 25.9558 -1.30952 18.8666
  endloop
 endfacet
 facet normal -0.7432 -0.277608 0.608759
  outer loop
   vertex 14.9976 14.243 12.5806
   vertex 25.9558 -1.30952 18.8666
   vertex 15.8981 14.414 13.758
  endloop
 endfacet
endsolid
