solid ascii
 facet normal -0.796202 0.263117 0.544823
  outer loop
   vertex 8.56601 -9.99303 -3.27232
   vertex 7.78307 -11.3297 -3.77099
   vertex 9.57169 -9.23805 -2.16723
  endloop
 endfacet
 facet normal -0.796202 0.263116 0.544824
  outer loop
   vertex 9.57169 -9.23805 -2.16723
   vertex 7.78307 -11.3297 -3.77099
   vertex 10.5676 -8.95416 -0.848841
  endloop
 endfacet
 facet normal -0.796202 0.263117 0.544823
  outer loop
   vertex 7.78307 -11.3297 -3.77099
   vertex 7.21316 -12.8495 -3.86986
   vertex 10.5676 -8.95416 -0.848841
  endloop
 endfacet
 facet normal -0.796202 0.263116 0.544824
  outer loop
   vertex 7.21316 -12.8495 -3.86986
   vertex 6.69049 -14.3167 -3.92514
   vertex 10.5676 -8.95416 -0.848841
  endloop
 endfacet
 facet normal -0.796203 0.263117 0.544822
  outer loop
   vertex 17.2343 -18.1665 13.3427
   vertex 17.5544 -16.6136 13.0606
   vertex 16.6388 -19.6544 13.1911
  endloop
 endfacet
 facet normal -0.796201 0.263116 0.544824
  outer loop
   vertex 16.6388 -19.6544 13.1911
   vertex 17.5544 -16.6136 13.0606
   vertex 15.8738 -20.9759 12.7113
  endloop
 endfacet
 facet normal -0.796201 0.263116 0.544824
  outer loop
   vertex 17.5544 -16.6136 13.0606
   vertex 17.6628 -15.1286 12.5019
   vertex 15.8738 -20.9759 12.7113
  endloop
 endfacet
 facet normal -0.796202 0.263116 0.544824
  outer loop
   vertex 15.8738 -20.9759 12.7113
   vertex 17.6628 -15.1286 12.5019
   vertex 15.0572 -22.1481 12.0841
  endloop
 endfacet
 facet normal -0.796201 0.263116 0.544824
  outer loop
   vertex 17.6628 -15.1286 12.5019
   vertex 17.6876 -13.7294 11.8624
   vertex 15.0572 -22.1481 12.0841
  endloop
 endfacet
 facet normal -0.796202 0.263116 0.544824
  outer loop
   vertex 10.5676 -8.95416 -0.848841
   vertex 6.69049 -14.3167 -3.92514
   vertex 11.4391 -8.57778 0.24291
  endloop
 endfacet
 facet normal -0.796202 0.263116 0.544824
  outer loop
   vertex 6.69049 -14.3167 -3.92514
   vertex 6.18842 -15.7802 -3.95205
   vertex 11.4391 -8.57778 0.24291
  endloop
 endfacet
 facet normal -0.796202 0.263116 0.544824
  outer loop
   vertex 6.18842 -15.7802 -3.95205
   vertex 5.81648 -17.2804 -3.77109
   vertex 11.4391 -8.57778 0.24291
  endloop
 endfacet
 facet normal -0.796202 0.263116 0.544824
  outer loop
   vertex 5.81648 -17.2804 -3.77109
   vertex 5.62438 -18.7639 -3.3354
   vertex 11.4391 -8.57778 0.24291
  endloop
 endfacet
 facet normal -0.796202 0.263117 0.544823
  outer loop
   vertex 5.62438 -18.7639 -3.3354
   vertex 5.52395 -20.2205 -2.77871
   vertex 11.4391 -8.57778 0.24291
  endloop
 endfacet
 facet normal -0.796201 0.263116 0.544824
  outer loop
   vertex 15.0572 -22.1481 12.0841
   vertex 17.6876 -13.7294 11.8624
   vertex 14.228 -23.2248 11.3923
  endloop
 endfacet
 facet normal -0.796201 0.263118 0.544824
  outer loop
   vertex 16.9305 -7.0266 7.51891
   vertex 16.1925 -6.34782 6.11253
   vertex 17.424 -8.11363 8.765
  endloop
 endfacet
 facet normal -0.796202 0.263116 0.544823
  outer loop
   vertex 16.1925 -6.34782 6.11253
   vertex 15.2801 -6.11727 4.66789
   vertex 17.424 -8.11363 8.765
  endloop
 endfacet
 facet normal -0.796202 0.263115 0.544823
  outer loop
   vertex 17.424 -8.11363 8.765
   vertex 15.2801 -6.11727 4.66789
   vertex 17.6507 -9.48998 9.76111
  endloop
 endfacet
 facet normal -0.796202 0.263116 0.544824
  outer loop
   vertex 15.2801 -6.11727 4.66789
   vertex 14.2738 -6.33026 3.30007
   vertex 17.6507 -9.48998 9.76111
  endloop
 endfacet
 facet normal -0.796202 0.263116 0.544824
  outer loop
   vertex 14.2738 -6.33026 3.30007
   vertex 13.2549 -6.93879 2.105
   vertex 17.6507 -9.48998 9.76111
  endloop
 endfacet
 facet normal -0.796202 0.263116 0.544824
  outer loop
   vertex 13.2549 -6.93879 2.105
   vertex 12.2998 -7.80824 1.12903
   vertex 17.6507 -9.48998 9.76111
  endloop
 endfacet
 facet normal -0.796202 0.263117 0.544824
  outer loop
   vertex 17.6507 -9.48998 9.76111
   vertex 12.2998 -7.80824 1.12903
   vertex 17.7005 -10.9484 10.5381
  endloop
 endfacet
 facet normal -0.796202 0.263116 0.544824
  outer loop
   vertex 17.7005 -10.9484 10.5381
   vertex 12.2998 -7.80824 1.12903
   vertex 17.6972 -12.3571 11.2137
  endloop
 endfacet
 facet normal -0.796202 0.263117 0.544824
  outer loop
   vertex 12.2998 -7.80824 1.12903
   vertex 11.4391 -8.57778 0.24291
   vertex 17.6972 -12.3571 11.2137
  endloop
 endfacet
 facet normal -0.796202 0.263116 0.544824
  outer loop
   vertex 11.4391 -8.57778 0.24291
   vertex 5.52395 -20.2205 -2.77871
   vertex 17.6972 -12.3571 11.2137
  endloop
 endfacet
 facet normal -0.796202 0.263116 0.544824
  outer loop
   vertex 5.52395 -20.2205 -2.77871
   vertex 5.44552 -21.7105 -2.17377
   vertex 17.6972 -12.3571 11.2137
  endloop
 endfacet
 facet normal -0.796202 0.263116 0.544824
  outer loop
   vertex 5.44552 -21.7105 -2.17377
   vertex 5.48866 -23.1845 -1.39885
   vertex 17.6972 -12.3571 11.2137
  endloop
 endfacet
 facet normal -0.796202 0.263116 0.544824
  outer loop
   vertex 5.48866 -23.1845 -1.39885
   vertex 5.78307 -24.4639 -0.350736
   vertex 17.6972 -12.3571 11.2137
  endloop
 endfacet
 facet normal -0.796202 0.263116 0.544823
  outer loop
   vertex 5.78307 -24.4639 -0.350736
   vertex 6.321 -25.4432 0.908326
   vertex 17.6972 -12.3571 11.2137
  endloop
 endfacet
 facet normal -0.796202 0.263116 0.544824
  outer loop
   vertex 6.321 -25.4432 0.908326
   vertex 6.99568 -26.188 2.25399
   vertex 17.6972 -12.3571 11.2137
  endloop
 endfacet
 facet normal -0.796202 0.263116 0.544824
  outer loop
   vertex 6.99568 -26.188 2.25399
   vertex 7.75042 -26.7669 3.63655
   vertex 17.6972 -12.3571 11.2137
  endloop
 endfacet
 facet normal -0.796202 0.263116 0.544824
  outer loop
   vertex 7.75042 -26.7669 3.63655
   vertex 8.60779 -27.09 5.04554
   vertex 17.6972 -12.3571 11.2137
  endloop
 endfacet
 facet normal -0.796202 0.263116 0.544824
  outer loop
   vertex 8.60779 -27.09 5.04554
   vertex 9.56492 -27.0417 6.42095
   vertex 17.6972 -12.3571 11.2137
  endloop
 endfacet
 facet normal -0.796202 0.263116 0.544823
  outer loop
   vertex 9.56492 -27.0417 6.42095
   vertex 10.5639 -26.6376 7.68568
   vertex 17.6972 -12.3571 11.2137
  endloop
 endfacet
 facet normal -0.796202 0.263116 0.544824
  outer loop
   vertex 17.6876 -13.7294 11.8624
   vertex 17.6972 -12.3571 11.2137
   vertex 14.228 -23.2248 11.3923
  endloop
 endfacet
 facet normal -0.796202 0.263116 0.544823
  outer loop
   vertex 17.6972 -12.3571 11.2137
   vertex 10.5639 -26.6376 7.68568
   vertex 14.228 -23.2248 11.3923
  endloop
 endfacet
 facet normal -0.796202 0.263116 0.544824
  outer loop
   vertex 10.5639 -26.6376 7.68568
   vertex 11.5468 -25.9791 8.80413
   vertex 14.228 -23.2248 11.3923
  endloop
 endfacet
 facet normal -0.796202 0.263119 0.544821
  outer loop
   vertex 11.5468 -25.9791 8.80413
   vertex 12.4857 -25.1565 9.77887
   vertex 14.228 -23.2248 11.3923
  endloop
 endfacet
 facet normal -0.796202 0.263118 0.544822
  outer loop
   vertex 13.3758 -24.2269 10.6307
   vertex 14.228 -23.2248 11.3923
   vertex 12.4857 -25.1565 9.77887
  endloop
 endfacet
endsolid
