solid ascii
 facet normal -0.659061 -0.658182 0.363917
  outer loop
   vertex 27.1411 3.542 36.1345
   vertex 25.8097 4.84083 36.0724
   vertex 27.9689 2.19671 35.2005
  endloop
 endfacet
 facet normal -0.65906 -0.658182 0.363918
  outer loop
   vertex 25.8097 4.84083 36.0724
   vertex 24.2795 5.79722 35.0309
   vertex 27.9689 2.19671 35.2005
  endloop
 endfacet
 facet normal -0.65906 -0.658182 0.363917
  outer loop
   vertex 27.9689 2.19671 35.2005
   vertex 24.2795 5.79722 35.0309
   vertex 28.4321 1.00657 33.887
  endloop
 endfacet
 facet normal -0.65906 -0.658182 0.363917
  outer loop
   vertex 24.2795 5.79722 35.0309
   vertex 22.9854 6.47911 33.9205
   vertex 28.4321 1.00657 33.887
  endloop
 endfacet
 facet normal -0.65906 -0.658182 0.363917
  outer loop
   vertex 28.4321 1.00657 33.887
   vertex 22.9854 6.47911 33.9205
   vertex 28.7947 -0.0615119 32.6119
  endloop
 endfacet
 facet normal -0.659059 -0.658183 0.363917
  outer loop
   vertex 29.6925 -3.84545 27.3941
   vertex 29.9601 -3.24585 28.9633
   vertex 28.8302 -3.85038 25.8236
  endloop
 endfacet
 facet normal -0.65906 -0.658182 0.363917
  outer loop
   vertex 29.9601 -3.24585 28.9633
   vertex 29.6569 -2.2103 30.2871
   vertex 28.8302 -3.85038 25.8236
  endloop
 endfacet
 facet normal -0.659061 -0.658181 0.363917
  outer loop
   vertex 28.8302 -3.85038 25.8236
   vertex 29.6569 -2.2103 30.2871
   vertex 27.8562 -3.62434 24.4686
  endloop
 endfacet
 facet normal -0.659061 -0.658182 0.363917
  outer loop
   vertex 29.6569 -2.2103 30.2871
   vertex 29.1844 -1.10381 31.4325
   vertex 27.8562 -3.62434 24.4686
  endloop
 endfacet
 facet normal -0.659061 -0.658182 0.363917
  outer loop
   vertex 12.4742 8.96104 19.3734
   vertex 12.8837 7.76657 17.9547
   vertex 12.6351 9.76206 21.1135
  endloop
 endfacet
 facet normal -0.65906 -0.658182 0.363917
  outer loop
   vertex 12.6351 9.76206 21.1135
   vertex 12.8837 7.76657 17.9547
   vertex 13.3664 10.0428 22.9457
  endloop
 endfacet
 facet normal -0.659061 -0.658182 0.363917
  outer loop
   vertex 12.8837 7.76657 17.9547
   vertex 13.7476 6.36655 16.9872
   vertex 13.3664 10.0428 22.9457
  endloop
 endfacet
 facet normal -0.659061 -0.658182 0.363917
  outer loop
   vertex 13.3664 10.0428 22.9457
   vertex 13.7476 6.36655 16.9872
   vertex 14.3911 9.92818 24.5941
  endloop
 endfacet
 facet normal -0.65906 -0.658182 0.363917
  outer loop
   vertex 13.7476 6.36655 16.9872
   vertex 14.8833 4.94278 16.469
   vertex 14.3911 9.92818 24.5941
  endloop
 endfacet
 facet normal -0.65906 -0.658182 0.363917
  outer loop
   vertex 14.8833 4.94278 16.469
   vertex 16.0902 3.61592 16.2548
   vertex 14.3911 9.92818 24.5941
  endloop
 endfacet
 facet normal -0.65906 -0.658182 0.363917
  outer loop
   vertex 14.3911 9.92818 24.5941
   vertex 16.0902 3.61592 16.2548
   vertex 15.3911 9.6811 25.9583
  endloop
 endfacet
 facet normal -0.65906 -0.658182 0.363918
  outer loop
   vertex 16.0902 3.61592 16.2548
   vertex 17.258 2.40742 16.184
   vertex 15.3911 9.6811 25.9583
  endloop
 endfacet
 facet normal -0.659059 -0.658184 0.363915
  outer loop
   vertex 19.8613 8.8656 32.579
   vertex 18.9491 9.21844 31.5652
   vertex 20.9034 8.15738 33.1852
  endloop
 endfacet
 facet normal -0.65906 -0.658182 0.363918
  outer loop
   vertex 20.9034 8.15738 33.1852
   vertex 18.9491 9.21844 31.5652
   vertex 21.9405 7.25935 33.4394
  endloop
 endfacet
 facet normal -0.65906 -0.658183 0.363917
  outer loop
   vertex 18.9491 9.21844 31.5652
   vertex 18.2023 9.32431 30.4042
   vertex 21.9405 7.25935 33.4394
  endloop
 endfacet
 facet normal -0.659061 -0.658182 0.363917
  outer loop
   vertex 17.258 2.40742 16.184
   vertex 18.4019 1.29804 16.2492
   vertex 15.3911 9.6811 25.9583
  endloop
 endfacet
 facet normal -0.65906 -0.658182 0.363918
  outer loop
   vertex 28.7947 -0.0615119 32.6119
   vertex 22.9854 6.47911 33.9205
   vertex 29.1844 -1.10381 31.4325
  endloop
 endfacet
 facet normal -0.65906 -0.658182 0.363917
  outer loop
   vertex 29.1844 -1.10381 31.4325
   vertex 22.9854 6.47911 33.9205
   vertex 27.8562 -3.62434 24.4686
  endloop
 endfacet
 facet normal -0.659061 -0.658182 0.363917
  outer loop
   vertex 15.3911 9.6811 25.9583
   vertex 18.4019 1.29804 16.2492
   vertex 16.2378 9.4719 27.1133
  endloop
 endfacet
 facet normal -0.659061 -0.658182 0.363917
  outer loop
   vertex 18.4019 1.29804 16.2492
   vertex 19.5398 0.289917 16.4867
   vertex 16.2378 9.4719 27.1133
  endloop
 endfacet
 facet normal -0.65906 -0.658183 0.363918
  outer loop
   vertex 19.5398 0.289917 16.4867
   vertex 20.666 -0.591569 16.9321
   vertex 16.2378 9.4719 27.1133
  endloop
 endfacet
 facet normal -0.659061 -0.658182 0.363917
  outer loop
   vertex 20.666 -0.591569 16.9321
   vertex 21.7511 -1.30351 17.6096
   vertex 16.2378 9.4719 27.1133
  endloop
 endfacet
 facet normal -0.65906 -0.658182 0.363918
  outer loop
   vertex 18.2023 9.32431 30.4042
   vertex 17.562 9.3348 29.2635
   vertex 21.9405 7.25935 33.4394
  endloop
 endfacet
 facet normal -0.65906 -0.658182 0.363917
  outer loop
   vertex 21.7511 -1.30351 17.6096
   vertex 22.7549 -1.8402 18.4567
   vertex 16.2378 9.4719 27.1133
  endloop
 endfacet
 facet normal -0.65906 -0.658182 0.363918
  outer loop
   vertex 27.8562 -3.62434 24.4686
   vertex 22.9854 6.47911 33.9205
   vertex 27.1158 -3.56582 23.2334
  endloop
 endfacet
 facet normal -0.659061 -0.658182 0.363917
  outer loop
   vertex 22.9854 6.47911 33.9205
   vertex 21.9405 7.25935 33.4394
   vertex 27.1158 -3.56582 23.2334
  endloop
 endfacet
 facet normal -0.65906 -0.658182 0.363917
  outer loop
   vertex 21.9405 7.25935 33.4394
   vertex 17.562 9.3348 29.2635
   vertex 27.1158 -3.56582 23.2334
  endloop
 endfacet
 facet normal -0.65906 -0.658182 0.363917
  outer loop
   vertex 22.7549 -1.8402 18.4567
   vertex 23.6919 -2.30953 19.3049
   vertex 16.2378 9.4719 27.1133
  endloop
 endfacet
 facet normal -0.65906 -0.658182 0.363917
  outer loop
   vertex 27.1158 -3.56582 23.2334
   vertex 17.562 9.3348 29.2635
   vertex 26.4396 -3.56039 22.0187
  endloop
 endfacet
 facet normal -0.659061 -0.658182 0.363917
  outer loop
   vertex 26.4396 -3.56039 22.0187
   vertex 17.562 9.3348 29.2635
   vertex 25.6052 -3.32286 20.9373
  endloop
 endfacet
 facet normal -0.65906 -0.658182 0.363917
  outer loop
   vertex 16.2378 9.4719 27.1133
   vertex 23.6919 -2.30953 19.3049
   vertex 16.9413 9.3571 28.1798
  endloop
 endfacet
 facet normal -0.65906 -0.658182 0.363917
  outer loop
   vertex 25.6052 -3.32286 20.9373
   vertex 17.562 9.3348 29.2635
   vertex 24.6442 -2.83581 20.0777
  endloop
 endfacet
 facet normal -0.65906 -0.658182 0.363917
  outer loop
   vertex 24.6442 -2.83581 20.0777
   vertex 17.562 9.3348 29.2635
   vertex 23.6919 -2.30953 19.3049
  endloop
 endfacet
 facet normal -0.659061 -0.658182 0.363917
  outer loop
   vertex 16.9413 9.3571 28.1798
   vertex 23.6919 -2.30953 19.3049
   vertex 17.562 9.3348 29.2635
  endloop
 endfacet
endsolid
